<?xml version="1.0" encoding="UTF-8"?>
<!DOCTYPE svg PUBLIC "-//W3C//DTD SVG 1.1//EN" "http://www.w3.org/Graphics/SVG/1.1/DTD/svg11.dtd">
<svg xmlns="http://www.w3.org/2000/svg" version="1.1" width="1105px" height="184px" style="shape-rendering:geometricPrecision; text-rendering:geometricPrecision; image-rendering:optimizeQuality; fill-rule:evenodd; clip-rule:evenodd" xmlns:xlink="http://www.w3.org/1999/xlink">
<g><path style="opacity:1" fill="#7f7741" d="M 226.5,2.5 C 230.82,1.83419 235.32,1.50086 240,1.5C 244.886,1.50727 249.386,2.17393 253.5,3.5C 244.584,2.52895 235.584,2.19561 226.5,2.5 Z"/></g>
<g><path style="opacity:1" fill="#807843" d="M 603.5,2.5 C 590.456,1.85301 577.789,2.51967 565.5,4.5C 564.596,3.79105 564.263,2.79105 564.5,1.5C 577.677,1.17119 590.677,1.50452 603.5,2.5 Z"/></g>
<g><path style="opacity:1" fill="#7f7743" d="M 722.5,4.5 C 721.082,2.69206 719.082,2.02539 716.5,2.5C 705.779,1.85805 695.446,2.52472 685.5,4.5C 684.596,3.79105 684.263,2.79105 684.5,1.5C 697.5,1.5 710.5,1.5 723.5,1.5C 723.737,2.79105 723.404,3.79105 722.5,4.5 Z"/></g>
<g><path style="opacity:1" fill="#c7be69" d="M 112.5,8.5 C 110.05,8.70197 107.717,8.36863 105.5,7.5C 91.0673,3.73079 76.4006,2.73079 61.5,4.5C 65.8384,5.28689 70.1717,5.95356 74.5,6.5C 74.5,6.83333 74.5,7.16667 74.5,7.5C 62.8494,6.16542 51.8494,8.16542 41.5,13.5C 41.5,12.5 41.5,11.5 41.5,10.5C 46.6575,9.46149 51.6575,7.96149 56.5,6C 52.141,5.46573 47.8076,5.6324 43.5,6.5C 66.6753,-0.432144 89.6753,0.234522 112.5,8.5 Z"/></g>
<g><path style="opacity:1" fill="#d5cb70" d="M 442.5,2.5 C 445.171,4.11805 448.171,4.78472 451.5,4.5C 456.522,5.1802 460.856,7.1802 464.5,10.5C 458.569,9.60215 452.902,7.93548 447.5,5.5C 446.167,5.66667 444.833,5.83333 443.5,6C 445.145,10.0464 446.478,14.2131 447.5,18.5C 444.795,16.4884 442.128,14.4884 439.5,12.5C 439.5,12.1667 439.5,11.8333 439.5,11.5C 440.833,11.5 442.167,11.5 443.5,11.5C 441.588,9.17825 440.255,6.51159 439.5,3.5C 406.498,3.33335 373.498,3.50002 340.5,4C 343.781,5.29403 346.448,7.29403 348.5,10C 347.748,10.6708 347.414,11.5041 347.5,12.5C 346.03,10.8487 344.697,9.01533 343.5,7C 340.268,5.53392 336.935,4.36726 333.5,3.5C 333.709,2.91395 334.043,2.41395 334.5,2C 370.523,1.19262 406.523,1.35928 442.5,2.5 Z"/></g>
<g><path style="opacity:1" fill="#f1e985" d="M 603.5,2.5 C 604.167,2.5 604.5,2.83333 604.5,3.5C 594.167,3.5 583.833,3.5 573.5,3.5C 573.5,4.5 573.5,5.5 573.5,6.5C 571.007,5.22642 568.341,4.55975 565.5,4.5C 577.789,2.51967 590.456,1.85301 603.5,2.5 Z"/></g>
<g><path style="opacity:1" fill="#fef172" d="M 439.5,11.5 C 439.389,10.8826 439.056,10.3826 438.5,10C 435.522,9.30404 432.522,8.80404 429.5,8.5C 429.167,8.5 428.833,8.5 428.5,8.5C 426.974,6.87003 424.974,6.03669 422.5,6C 406.661,5.17202 390.995,5.33868 375.5,6.5C 374.17,41.0024 374.17,75.669 375.5,110.5C 378.29,112.333 377.957,113.333 374.5,113.5C 374.17,134.007 374.503,154.34 375.5,174.5C 376.552,176.256 378.219,176.923 380.5,176.5C 380.5,177.167 380.5,177.833 380.5,178.5C 367.496,178.667 354.496,178.5 341.5,178C 344.142,176.532 345.809,174.365 346.5,171.5C 348.074,171.063 349.241,170.063 350,168.5C 350.573,164.152 351.24,159.819 352,155.5C 352.667,111.167 352.667,66.8333 352,22.5C 351.385,19.6971 350.218,17.3637 348.5,15.5C 347.596,14.791 347.263,13.791 347.5,12.5C 347.414,11.5041 347.748,10.6708 348.5,10C 346.448,7.29403 343.781,5.29403 340.5,4C 373.498,3.50002 406.498,3.33335 439.5,3.5C 440.255,6.51159 441.588,9.17825 443.5,11.5C 442.167,11.5 440.833,11.5 439.5,11.5 Z"/></g>
<g><path style="opacity:1" fill="#9d9855" d="M 442.5,2.5 C 445.727,2.67615 448.727,3.34281 451.5,4.5C 448.171,4.78472 445.171,4.11805 442.5,2.5 Z"/></g>
<g><path style="opacity:1" fill="#faee73" d="M 716.5,2.5 C 715.264,4.04279 713.598,5.04279 711.5,5.5C 710.548,7.04533 710.215,8.71199 710.5,10.5C 709.345,13.4569 708.345,16.4569 707.5,19.5C 705.933,20.6808 705.099,22.3474 705,24.5C 704.5,75.1656 704.333,125.832 704.5,176.5C 702.123,176.784 699.956,176.784 698,176.5C 696.577,171.123 695.243,165.79 694,160.5C 693.241,158.937 692.074,157.937 690.5,157.5C 687.988,153.134 685.988,148.467 684.5,143.5C 683.833,138.164 682.166,133.164 679.5,128.5C 678.583,127.873 677.583,127.539 676.5,127.5C 652.509,86.8121 622.843,50.4787 587.5,18.5C 587.5,18.1667 587.5,17.8333 587.5,17.5C 586.791,16.596 585.791,16.2627 584.5,16.5C 584.99,63.2513 584.49,109.918 583,156.5C 582.667,110.833 582.333,65.1667 582,19.5C 581.261,17.1112 580.095,15.1112 578.5,13.5C 577.091,11.0283 575.424,8.695 573.5,6.5C 573.5,5.5 573.5,4.5 573.5,3.5C 583.833,3.5 594.167,3.5 604.5,3.5C 605.5,4.16667 606.5,4.83333 607.5,5.5C 607.525,8.17901 608.858,9.51234 611.5,9.5C 639.804,36.6267 664.971,66.2934 687,98.5C 691.7,105.901 695.866,113.568 699.5,121.5C 699.116,123.665 699.783,125.332 701.5,126.5C 702.667,93.1717 702.833,59.8383 702,26.5C 701.722,25.5842 701.222,24.9175 700.5,24.5C 700.087,19.182 698.587,14.182 696,9.5C 693.195,6.34749 689.695,4.68082 685.5,4.5C 695.446,2.52472 705.779,1.85805 716.5,2.5 Z"/></g>
<g><path style="opacity:1" fill="#f9ed72" d="M 949.5,12.5 C 951.566,16.2667 951.899,20.2667 950.5,24.5C 946.96,27.944 945.293,32.2774 945.5,37.5C 945.5,38.1667 945.167,38.5 944.5,38.5C 943.167,38.5 941.833,38.5 940.5,38.5C 940.785,40.288 940.452,41.9547 939.5,43.5C 938.786,40.9728 938.12,38.4728 937.5,36C 933.974,34.6632 930.308,34.1632 926.5,34.5C 916.478,28.5902 913.978,20.2568 919,9.5C 920.777,7.21008 922.944,5.54341 925.5,4.5C 930.968,2.85079 936.301,3.18413 941.5,5.5C 942.429,6.68884 942.762,8.02218 942.5,9.5C 945.195,9.6815 947.528,10.6815 949.5,12.5 Z"/></g>
<g><path style="opacity:1" fill="#dcd26f" d="M 1070.5,8.5 C 1068.86,8.28649 1067.36,8.61983 1066,9.5C 1060.21,7.70842 1054.21,6.37509 1048,5.5C 1046.17,5.83333 1044.33,6.16667 1042.5,6.5C 1046.48,8.63538 1050.65,10.302 1055,11.5C 1056.88,10.394 1058.72,10.394 1060.5,11.5C 1059.97,12.1924 1059.31,12.6924 1058.5,13C 1059.25,13.6708 1059.59,14.5041 1059.5,15.5C 1038.11,4.69739 1016.78,4.86406 995.5,16C 985.682,22.1366 981.015,30.97 981.5,42.5C 980.281,36.643 980.281,30.643 981.5,24.5C 982.5,24.5 983.5,24.5 984.5,24.5C 984.351,23.448 984.517,22.448 985,21.5C 995.512,13.9027 994.345,11.9027 981.5,15.5C 993.865,7.48215 1007.53,2.98215 1022.5,2C 1039.09,0.820783 1055.09,2.98745 1070.5,8.5 Z"/></g>
<g><path style="opacity:1" fill="#d5cb70" d="M 837.5,3.5 C 837.833,4.16667 838.167,4.83333 838.5,5.5C 831.211,4.44328 823.878,3.77661 816.5,3.5C 808.535,4.46767 800.535,5.46767 792.5,6.5C 807.093,1.23322 822.093,0.233218 837.5,3.5 Z"/></g>
<g><path style="opacity:1" fill="#a49e50" d="M 837.5,3.5 C 840.067,3.72148 842.401,4.38815 844.5,5.5C 842.5,5.5 840.5,5.5 838.5,5.5C 838.167,4.83333 837.833,4.16667 837.5,3.5 Z"/></g>
<g><path style="opacity:1" fill="#f3ea87" d="M 375.5,6.5 C 390.995,5.33868 406.661,5.17202 422.5,6C 424.974,6.03669 426.974,6.87003 428.5,8.5C 425.482,8.29619 422.482,7.96286 419.5,7.5C 405.01,6.50398 390.343,6.17065 375.5,6.5 Z"/></g>
<g><path style="opacity:1" fill="#d0c76d" d="M 716.5,2.5 C 719.082,2.02539 721.082,2.69206 722.5,4.5C 717.379,4.41971 713.379,6.41971 710.5,10.5C 710.215,8.71199 710.548,7.04533 711.5,5.5C 713.598,5.04279 715.264,4.04279 716.5,2.5 Z"/></g>
<g><path style="opacity:1" fill="#d4cc71" d="M 949.5,12.5 C 947.528,10.6815 945.195,9.6815 942.5,9.5C 942.762,8.02218 942.429,6.68884 941.5,5.5C 936.301,3.18413 930.968,2.85079 925.5,4.5C 931.73,0.487726 938.063,0.654392 944.5,5C 946.808,7.12769 948.474,9.62769 949.5,12.5 Z"/></g>
<g><path style="opacity:1" fill="#fbf075" d="M 41.5,13.5 C 40.8333,13.8333 40.1667,14.1667 39.5,14.5C 38.4324,13.5655 37.099,13.2322 35.5,13.5C 35.33,12.1779 35.6634,11.0113 36.5,10C 39.4422,9.85611 41.7756,8.68944 43.5,6.5C 47.8076,5.6324 52.141,5.46573 56.5,6C 51.6575,7.96149 46.6575,9.46149 41.5,10.5C 41.5,11.5 41.5,12.5 41.5,13.5 Z"/></g>
<g><path style="opacity:1" fill="#fcf274" d="M 105.5,7.5 C 103.708,8.30912 101.708,8.80912 99.5,9C 98.91,10.2989 97.91,11.1322 96.5,11.5C 89.7594,7.70379 82.4261,6.03713 74.5,6.5C 70.1717,5.95356 65.8384,5.28689 61.5,4.5C 76.4006,2.73079 91.0673,3.73079 105.5,7.5 Z"/></g>
<g><path style="opacity:1" fill="#afa75f" d="M 607.5,5.5 C 609.167,6.5 610.5,7.83333 611.5,9.5C 608.858,9.51234 607.525,8.17901 607.5,5.5 Z"/></g>
<g><path style="opacity:1" fill="#cec76e" d="M 829.5,13.5 C 820.786,10.358 811.786,9.02472 802.5,9.5C 807.855,8.76895 813.355,8.10228 819,7.5C 823.111,8.55306 826.611,10.5531 829.5,13.5 Z"/></g>
<g><path style="opacity:1" fill="#c4bb68" d="M 845.5,5.5 C 849.739,6.7958 853.739,8.46247 857.5,10.5C 852.54,10.719 848.54,9.0523 845.5,5.5 Z"/></g>
<g><path style="opacity:1" fill="#c7bd68" d="M 429.5,8.5 C 432.522,8.80404 435.522,9.30404 438.5,10C 439.056,10.3826 439.389,10.8826 439.5,11.5C 439.5,11.8333 439.5,12.1667 439.5,12.5C 436.011,11.342 432.678,10.0086 429.5,8.5 Z"/></g>
<g><path style="opacity:1" fill="#f7eb73" d="M 838.5,5.5 C 840.5,5.5 842.5,5.5 844.5,5.5C 844.833,5.5 845.167,5.5 845.5,5.5C 848.54,9.0523 852.54,10.719 857.5,10.5C 864.372,13.7173 870.706,17.7173 876.5,22.5C 875.883,22.6107 875.383,22.944 875,23.5C 873.274,21.0892 871.107,20.4225 868.5,21.5C 868.403,23.7485 868.57,26.0819 869,28.5C 868.017,26.5516 866.85,24.7183 865.5,23C 863.926,22.3013 862.593,22.6346 861.5,24C 863,26.8333 865.167,29 868,30.5C 868,33.1667 868,35.8333 868,38.5C 868.741,39.6405 869.575,39.6405 870.5,38.5C 871.429,37.3112 871.762,35.9778 871.5,34.5C 874.167,34.5 876.833,34.5 879.5,34.5C 879.799,36.604 879.466,38.604 878.5,40.5C 877.522,40.0233 876.689,39.3567 876,38.5C 876.148,42.1199 874.648,44.6199 871.5,46C 873.724,50.7177 875.724,55.551 877.5,60.5C 877.833,60.8333 878.167,61.1667 878.5,61.5C 879.474,59.2573 879.808,56.924 879.5,54.5C 882.243,54.0772 883.576,55.2439 883.5,58C 882.112,60.4272 881.445,63.0939 881.5,66C 882.364,71.1488 883.03,76.3155 883.5,81.5C 877.208,58.747 865.208,39.5804 847.5,24C 841.637,20.236 835.637,16.736 829.5,13.5C 826.611,10.5531 823.111,8.55306 819,7.5C 813.355,8.10228 807.855,8.76895 802.5,9.5C 801.833,9.5 801.167,9.5 800.5,9.5C 797.5,9.5 794.5,9.5 791.5,9.5C 791.5,8.5 791.5,7.5 791.5,6.5C 791.833,6.5 792.167,6.5 792.5,6.5C 800.535,5.46767 808.535,4.46767 816.5,3.5C 823.878,3.77661 831.211,4.44328 838.5,5.5 Z"/></g>
<g><path style="opacity:1" fill="#dbd171" d="M 791.5,6.5 C 791.5,7.5 791.5,8.5 791.5,9.5C 794.5,9.5 797.5,9.5 800.5,9.5C 794.653,10.7203 788.986,12.7203 783.5,15.5C 783.762,14.0222 783.429,12.6888 782.5,11.5C 780.929,12.3094 779.262,12.6427 777.5,12.5C 781.679,9.54523 786.346,7.54523 791.5,6.5 Z"/></g>
<g><path style="opacity:1" fill="#bcb467" d="M 1071.5,8.5 C 1074.74,9.46291 1077.74,10.7962 1080.5,12.5C 1076.76,12.459 1073.76,11.1257 1071.5,8.5 Z"/></g>
<g><path style="opacity:1" fill="#fdf173" d="M 552.5,22.5 C 552.5,23.8333 552.5,25.1667 552.5,26.5C 537.167,26.5 521.833,26.5 506.5,26.5C 506.704,23.4824 507.037,20.4824 507.5,17.5C 509.442,12.5588 512.775,8.89217 517.5,6.5C 518.496,6.41423 519.329,6.74756 520,7.5C 522.554,6.22895 525.387,5.56228 528.5,5.5C 531.167,5.66667 533.833,5.83333 536.5,6C 538.976,8.57114 541.976,10.0711 545.5,10.5C 545.34,12.1992 545.506,13.8659 546,15.5C 548.393,17.6853 550.559,20.0187 552.5,22.5 Z"/></g>
<g><path style="opacity:1" fill="#e6de77" d="M 552.5,20.5 C 552.5,21.1667 552.5,21.8333 552.5,22.5C 550.559,20.0187 548.393,17.6853 546,15.5C 545.506,13.8659 545.34,12.1992 545.5,10.5C 541.976,10.0711 538.976,8.57114 536.5,6C 533.833,5.83333 531.167,5.66667 528.5,5.5C 525.387,5.56228 522.554,6.22895 520,7.5C 519.329,6.74756 518.496,6.41423 517.5,6.5C 518.6,5.44153 519.934,4.6082 521.5,4C 536.802,0.645789 547.135,6.14579 552.5,20.5 Z"/></g>
<g><path style="opacity:1" fill="#fcf175" d="M 783.5,15.5 C 783.167,15.5 782.833,15.5 782.5,15.5C 780.105,16.3635 777.771,16.3635 775.5,15.5C 776.612,14.7348 777.279,13.7348 777.5,12.5C 779.262,12.6427 780.929,12.3094 782.5,11.5C 783.429,12.6888 783.762,14.0222 783.5,15.5 Z"/></g>
<g><path style="opacity:1" fill="#f6eb72" d="M 74.5,7.5 C 74.5,7.16667 74.5,6.83333 74.5,6.5C 82.4261,6.03713 89.7594,7.70379 96.5,11.5C 97.91,11.1322 98.91,10.2989 99.5,9C 101.708,8.80912 103.708,8.30912 105.5,7.5C 107.717,8.36863 110.05,8.70197 112.5,8.5C 120.864,10.8499 128.531,14.5166 135.5,19.5C 136.413,21.0861 136.413,22.5861 135.5,24C 137.5,24.3333 139.5,24.6667 141.5,25C 142.517,26.0495 142.684,27.2161 142,28.5C 138.31,25.1596 136.143,25.8262 135.5,30.5C 137.167,30.5 138.833,30.5 140.5,30.5C 139.755,35.11 138.255,39.4434 136,43.5C 134.99,40.5525 133.157,39.8858 130.5,41.5C 129.274,39.7221 127.607,38.7221 125.5,38.5C 118.653,29.885 110.653,22.385 101.5,16C 93.0878,11.2513 84.0878,8.41792 74.5,7.5 Z"/></g>
<g><path style="opacity:1" fill="#ece173" d="M 43.5,6.5 C 41.7756,8.68944 39.4422,9.85611 36.5,10C 35.6634,11.0113 35.33,12.1779 35.5,13.5C 37.099,13.2322 38.4324,13.5655 39.5,14.5C 34.2056,18.1266 29.539,22.46 25.5,27.5C 26.0667,24.6516 25.4,21.985 23.5,19.5C 20.8333,20.1667 18.1667,20.8333 15.5,21.5C 19.4168,17.0943 24.0834,13.5943 29.5,11C 34.037,8.98727 38.7037,7.48727 43.5,6.5 Z"/></g>
<g><path style="opacity:1" fill="#f9ed73" d="M 1070.5,8.5 C 1070.83,8.5 1071.17,8.5 1071.5,8.5C 1073.76,11.1257 1076.76,12.459 1080.5,12.5C 1088.13,14.9762 1094.79,18.9762 1100.5,24.5C 1099.79,29.9737 1098.79,35.3071 1097.5,40.5C 1096.55,44.4031 1095.05,48.0698 1093,51.5C 1083.86,37.5045 1072.69,25.5045 1059.5,15.5C 1059.59,14.5041 1059.25,13.6708 1058.5,13C 1059.31,12.6924 1059.97,12.1924 1060.5,11.5C 1058.72,10.394 1056.88,10.394 1055,11.5C 1050.65,10.302 1046.48,8.63538 1042.5,6.5C 1044.33,6.16667 1046.17,5.83333 1048,5.5C 1054.21,6.37509 1060.21,7.70842 1066,9.5C 1067.36,8.61983 1068.86,8.28649 1070.5,8.5 Z"/></g>
<g><path style="opacity:1" fill="#3d3810" d="M 375.5,6.5 C 390.343,6.17065 405.01,6.50398 419.5,7.5C 405.167,7.5 390.833,7.5 376.5,7.5C 376.168,41.3375 376.502,75.0041 377.5,108.5C 377.44,109.043 377.107,109.376 376.5,109.5C 375.5,75.1731 375.167,40.8398 375.5,6.5 Z"/></g>
<g><path style="opacity:1" fill="#f1e775" d="M 777.5,12.5 C 777.279,13.7348 776.612,14.7348 775.5,15.5C 777.771,16.3635 780.105,16.3635 782.5,15.5C 778.021,18.919 773.688,22.5857 769.5,26.5C 766.05,25.7564 764.384,27.0897 764.5,30.5C 763.448,30.3505 762.448,30.5172 761.5,31C 762.406,32.6995 762.739,34.5328 762.5,36.5C 762.167,36.5 761.833,36.5 761.5,36.5C 761.657,35.1266 761.49,33.7932 761,32.5C 758.519,34.3137 755.685,34.9804 752.5,34.5C 752.067,37.1656 751.567,39.8323 751,42.5C 749.75,43.5733 748.416,43.5733 747,42.5C 745.649,44.0182 744.149,45.3515 742.5,46.5C 750.885,31.782 762.551,20.4487 777.5,12.5 Z"/></g>
<g><path style="opacity:1" fill="#e8e091" d="M 507.5,17.5 C 507.037,20.4824 506.704,23.4824 506.5,26.5C 521.833,26.5 537.167,26.5 552.5,26.5C 552.5,25.1667 552.5,23.8333 552.5,22.5C 552.5,21.8333 552.5,21.1667 552.5,20.5C 553.468,22.6074 553.802,24.9407 553.5,27.5C 537.167,27.5 520.833,27.5 504.5,27.5C 504.59,23.7858 505.59,20.4525 507.5,17.5 Z"/></g>
<g><path style="opacity:1" fill="#d8cd6c" d="M 769.5,26.5 C 767.154,29.8708 764.821,33.2041 762.5,36.5C 762.739,34.5328 762.406,32.6995 761.5,31C 762.448,30.5172 763.448,30.3505 764.5,30.5C 764.384,27.0897 766.05,25.7564 769.5,26.5 Z"/></g>
<g><path style="opacity:1" fill="#b1ac68" d="M 587.5,17.5 C 587.5,17.8333 587.5,18.1667 587.5,18.5C 586.501,62.6635 586.168,106.997 586.5,151.5C 585.833,129.336 585.5,107.003 585.5,84.5C 585.5,61.8232 586.167,39.4899 587.5,17.5 Z"/></g>
<g><path style="opacity:1" fill="#bfb764" d="M 950.5,24.5 C 949.796,29.2897 948.129,33.623 945.5,37.5C 945.293,32.2774 946.96,27.944 950.5,24.5 Z"/></g>
<g><path style="opacity:1" fill="#fcf079" d="M 553.5,29.5 C 553.5,30.1667 553.5,30.8333 553.5,31.5C 537.74,33.4613 521.74,34.128 505.5,33.5C 505.5,32.1667 505.5,30.8333 505.5,29.5C 521.5,29.5 537.5,29.5 553.5,29.5 Z"/></g>
<g><path style="opacity:1" fill="#beb352" d="M 553.5,29.5 C 537.5,29.5 521.5,29.5 505.5,29.5C 505.5,30.8333 505.5,32.1667 505.5,33.5C 521.74,34.128 537.74,33.4613 553.5,31.5C 554.55,31.9046 554.55,32.5712 553.5,33.5C 537.18,34.4994 520.847,34.8328 504.5,34.5C 504.5,32.5 504.5,30.5 504.5,28.5C 521.009,28.1702 537.342,28.5036 553.5,29.5 Z"/></g>
<g><path style="opacity:1" fill="#c2bd6b" d="M 1100.5,24.5 C 1102,24.4148 1103,25.0815 1103.5,26.5C 1101.45,31.2562 1099.45,35.9228 1097.5,40.5C 1098.79,35.3071 1099.79,29.9737 1100.5,24.5 Z"/></g>
<g><path style="opacity:1" fill="#cac16a" d="M 235.5,27.5 C 237.942,27.1192 238.609,27.7859 237.5,29.5C 240.046,34.8899 241.713,40.5566 242.5,46.5C 239.932,40.3424 237.598,34.0091 235.5,27.5 Z"/></g>
<g><path style="opacity:1" fill="#ede597" d="M 502.5,35.5 C 520.17,35.3334 537.836,35.5001 555.5,36C 556.833,37.6667 556.833,39.3333 555.5,41C 537.836,41.4999 520.17,41.6666 502.5,41.5C 502.5,39.5 502.5,37.5 502.5,35.5 Z"/></g>
<g><path style="opacity:1" fill="#fcf072" d="M 25.5,27.5 C 24.5,27.5 23.5,27.5 22.5,27.5C 21.5659,32.4594 20.7325,37.4594 20,42.5C 18.331,44.1691 17.4977,46.1691 17.5,48.5C 19.8244,48.6615 21.4911,49.8282 22.5,52C 22.5,53.3333 22.5,54.6667 22.5,56C 24.9422,57.11 27.1089,58.61 29,60.5C 29.3333,60.1667 29.6667,59.8333 30,59.5C 30.1953,61.2072 30.1953,62.8739 30,64.5C 32.2185,62.3813 34.7185,62.048 37.5,63.5C 36.8333,64.1667 36.1667,64.8333 35.5,65.5C 36,65.8333 36.5,66.1667 37,66.5C 40.1161,63.5108 43.6161,62.8442 47.5,64.5C 50.9679,65.1009 54.3012,66.1009 57.5,67.5C 61.5106,70.3437 66.1773,71.6771 71.5,71.5C 74.6235,71.9084 76.9568,73.575 78.5,76.5C 84.1197,75.7383 89.7864,75.7383 95.5,76.5C 95.8333,76.5 96.1667,76.5 96.5,76.5C 96.5774,77.7498 97.244,78.5831 98.5,79C 103.402,80.6425 108.402,81.8091 113.5,82.5C 113.574,84.4109 114.574,85.5776 116.5,86C 115.376,86.2492 114.376,86.7492 113.5,87.5C 115.635,88.6454 117.801,88.6454 120,87.5C 121.567,88.8561 123.4,89.5228 125.5,89.5C 125.5,90.8333 125.5,92.1667 125.5,93.5C 127.821,93.2289 129.821,93.8955 131.5,95.5C 131.599,98.1213 131.933,100.788 132.5,103.5C 133.386,102.675 133.719,101.675 133.5,100.5C 134.959,100.433 136.292,100.766 137.5,101.5C 139.771,103.612 141.104,106.279 141.5,109.5C 143.145,119.085 143.812,128.752 143.5,138.5C 143.139,142.915 141.806,146.915 139.5,150.5C 138.5,150.5 137.5,150.5 136.5,150.5C 136.5,151.833 136.5,153.167 136.5,154.5C 135.167,154.5 133.833,154.5 132.5,154.5C 132.719,155.675 132.386,156.675 131.5,157.5C 130.167,156.833 128.833,156.167 127.5,155.5C 126.943,153.282 126.943,150.949 127.5,148.5C 127.5,148.167 127.5,147.833 127.5,147.5C 129.752,142.593 130.085,137.426 128.5,132C 128.392,130.319 127.725,129.152 126.5,128.5C 122.847,121.337 117.847,115.17 111.5,110C 105.53,106.846 99.53,104.012 93.5,101.5C 90.0689,98.886 86.0689,97.886 81.5,98.5C 75.4059,97.4758 69.4059,96.1425 63.5,94.5C 62.9094,93.8485 62.2427,93.1818 61.5,92.5C 58.2317,91.513 54.8984,91.1796 51.5,91.5C 51.3893,90.8826 51.056,90.3826 50.5,90C 47.5219,89.304 44.5219,88.804 41.5,88.5C 27.9222,85.4232 16.4222,78.7566 7,68.5C 5.29501,66.4234 4.12835,64.09 3.5,61.5C 1.20753,50.4643 2.87419,40.1309 8.5,30.5C 9.7202,29.2889 10.8869,29.2889 12,30.5C 12.6667,29.1667 13.3333,27.8333 14,26.5C 14.3333,27.1667 14.6667,27.8333 15,28.5C 16.0603,26.0499 16.227,23.7166 15.5,21.5C 18.1667,20.8333 20.8333,20.1667 23.5,19.5C 25.4,21.985 26.0667,24.6516 25.5,27.5 Z"/></g>
<g><path style="opacity:1" fill="#ebe17e" d="M 578.5,13.5 C 580.095,15.1112 581.261,17.1112 582,19.5C 582.333,65.1667 582.667,110.833 583,156.5C 584.49,109.918 584.99,63.2513 584.5,16.5C 585.791,16.2627 586.791,16.596 587.5,17.5C 586.167,39.4899 585.5,61.8232 585.5,84.5C 585.5,107.003 585.833,129.336 586.5,151.5C 587.248,156.485 587.915,161.485 588.5,166.5C 587.035,163.883 585.369,161.217 583.5,158.5C 581.203,163.729 579.537,169.062 578.5,174.5C 577.167,174.5 575.833,174.5 574.5,174.5C 578.995,167.221 581.162,159.221 581,150.5C 581.667,111.5 581.667,72.5 581,33.5C 580.716,26.7482 579.882,20.0816 578.5,13.5 Z"/></g>
<g><path style="opacity:1" fill="#d4ca71" d="M 218.5,25.5 C 218.07,29.6442 217.07,33.6442 215.5,37.5C 215.667,38.5 215.833,39.5 216,40.5C 216.498,38.4556 217.665,37.1223 219.5,36.5C 217.675,41.986 215.675,47.3194 213.5,52.5C 214.341,48.8366 214.841,45.1699 215,41.5C 213.454,44.4394 211.621,47.1061 209.5,49.5C 212.129,41.2698 215.129,33.2698 218.5,25.5 Z"/></g>
<g><path style="opacity:1" fill="#857e47" d="M 706.5,29.5 C 706.5,79.8333 706.5,130.167 706.5,180.5C 703.287,180.81 700.287,180.477 697.5,179.5C 700.167,179.5 702.833,179.5 705.5,179.5C 705.168,129.331 705.501,79.3306 706.5,29.5 Z"/></g>
<g><path style="opacity:1" fill="#fcf072" d="M 876.5,22.5 C 887.915,31.5796 896.248,42.913 901.5,56.5C 902.412,62.5746 903.745,68.5746 905.5,74.5C 906.692,87.8365 906.692,101.17 905.5,114.5C 905.5,114.833 905.5,115.167 905.5,115.5C 904.542,115.953 903.708,116.619 903,117.5C 898.875,126.08 895.041,134.747 891.5,143.5C 887.873,148.794 883.54,153.461 878.5,157.5C 869.529,157.952 868.529,155.785 875.5,151C 876.793,150.51 878.127,150.343 879.5,150.5C 877.918,145.734 878.752,141.4 882,137.5C 882.696,134.522 883.196,131.522 883.5,128.5C 886.539,121.611 887.872,114.277 887.5,106.5C 887.384,99.1136 886.718,91.7803 885.5,84.5C 884.817,84.1373 884.15,83.8039 883.5,83.5C 883.5,82.8333 883.5,82.1667 883.5,81.5C 883.03,76.3155 882.364,71.1488 881.5,66C 881.445,63.0939 882.112,60.4272 883.5,58C 883.576,55.2439 882.243,54.0772 879.5,54.5C 879.808,56.924 879.474,59.2573 878.5,61.5C 878.167,61.1667 877.833,60.8333 877.5,60.5C 875.724,55.551 873.724,50.7177 871.5,46C 874.648,44.6199 876.148,42.1199 876,38.5C 876.689,39.3567 877.522,40.0233 878.5,40.5C 879.466,38.604 879.799,36.604 879.5,34.5C 876.833,34.5 874.167,34.5 871.5,34.5C 871.762,35.9778 871.429,37.3112 870.5,38.5C 869.575,39.6405 868.741,39.6405 868,38.5C 868,35.8333 868,33.1667 868,30.5C 865.167,29 863,26.8333 861.5,24C 862.593,22.6346 863.926,22.3013 865.5,23C 866.85,24.7183 868.017,26.5516 869,28.5C 868.57,26.0819 868.403,23.7485 868.5,21.5C 871.107,20.4225 873.274,21.0892 875,23.5C 875.383,22.944 875.883,22.6107 876.5,22.5 Z"/></g>
<g><path style="opacity:1" fill="#fbf07b" d="M 503.5,36.5 C 520.5,36.5 537.5,36.5 554.5,36.5C 554.5,37.8333 554.5,39.1667 554.5,40.5C 537.5,40.5 520.5,40.5 503.5,40.5C 503.5,39.1667 503.5,37.8333 503.5,36.5 Z"/></g>
<g><path style="opacity:1" fill="#e6dd74" d="M 135.5,19.5 C 139.275,21.0562 142.275,23.5562 144.5,27C 141.726,35.3239 138.559,43.4906 135,51.5C 131.824,47.1372 128.657,42.8039 125.5,38.5C 127.607,38.7221 129.274,39.7221 130.5,41.5C 133.157,39.8858 134.99,40.5525 136,43.5C 138.255,39.4434 139.755,35.11 140.5,30.5C 138.833,30.5 137.167,30.5 135.5,30.5C 136.143,25.8262 138.31,25.1596 142,28.5C 142.684,27.2161 142.517,26.0495 141.5,25C 139.5,24.6667 137.5,24.3333 135.5,24C 136.413,22.5861 136.413,21.0861 135.5,19.5 Z"/></g>
<g><path style="opacity:1" fill="#a39a59" d="M 961.5,37.5 C 961.59,40.1522 960.924,42.4855 959.5,44.5C 959.41,41.8478 960.076,39.5145 961.5,37.5 Z"/></g>
<g><path style="opacity:1" fill="#cfc76f" d="M 348.5,15.5 C 350.218,17.3637 351.385,19.6971 352,22.5C 352.667,66.8333 352.667,111.167 352,155.5C 351.24,159.819 350.573,164.152 350,168.5C 349.241,170.063 348.074,171.063 346.5,171.5C 348.446,166.713 349.613,161.713 350,156.5C 350.667,113.167 350.667,69.8333 350,26.5C 349.58,22.8086 349.08,19.1419 348.5,15.5 Z"/></g>
<g><path style="opacity:1" fill="#e5dd76" d="M 448.5,52.5 C 454.146,40.8913 453.813,29.558 447.5,18.5C 448.583,18.5394 449.583,18.8728 450.5,19.5C 451.192,18.9747 451.692,18.3081 452,17.5C 454.253,27.0428 454.919,36.7094 454,46.5C 452.327,48.7889 450.493,50.7889 448.5,52.5 Z"/></g>
<g><path style="opacity:1" fill="#d7ce72" d="M 926.5,34.5 C 930.308,34.1632 933.974,34.6632 937.5,36C 938.12,38.4728 938.786,40.9728 939.5,43.5C 940.452,41.9547 940.785,40.288 940.5,38.5C 941.833,38.5 943.167,38.5 944.5,38.5C 941.708,44.3904 937.708,49.3904 932.5,53.5C 931.5,53.1667 930.833,52.5 930.5,51.5C 934.403,47.2271 936.403,42.3938 936.5,37C 932.91,36.6894 929.577,35.856 926.5,34.5 Z"/></g>
<g><path style="opacity:1" fill="#d6cd76" d="M 261.5,27.5 C 264.734,34.5288 267.401,41.8621 269.5,49.5C 267.919,47.3263 266.419,44.9929 265,42.5C 263.109,37.6625 261.942,32.6625 261.5,27.5 Z"/></g>
<g><path style="opacity:1" fill="#dad175" d="M 700.5,24.5 C 701.222,24.9175 701.722,25.5842 702,26.5C 702.833,59.8383 702.667,93.1717 701.5,126.5C 699.783,125.332 699.116,123.665 699.5,121.5C 700.222,121.918 700.722,122.584 701,123.5C 701.775,90.4874 701.608,57.4874 700.5,24.5 Z"/></g>
<g><path style="opacity:1" fill="#c9c26b" d="M 761.5,36.5 C 761.833,36.5 762.167,36.5 762.5,36.5C 761.07,40.3544 759.403,44.0211 757.5,47.5C 757.677,43.2924 759.01,39.6257 761.5,36.5 Z"/></g>
<g><path style="opacity:1" fill="#faef7a" d="M 213.5,52.5 C 213.5,52.8333 213.5,53.1667 213.5,53.5C 211.39,54.4525 210.223,56.1192 210,58.5C 208.705,55.9949 208.539,53.3283 209.5,50.5C 209.5,50.1667 209.5,49.8333 209.5,49.5C 211.621,47.1061 213.454,44.4394 215,41.5C 214.841,45.1699 214.341,48.8366 213.5,52.5 Z"/></g>
<g><path style="opacity:1" fill="#d0c96d" d="M 15.5,21.5 C 16.227,23.7166 16.0603,26.0499 15,28.5C 14.6667,27.8333 14.3333,27.1667 14,26.5C 13.3333,27.8333 12.6667,29.1667 12,30.5C 10.8869,29.2889 9.7202,29.2889 8.5,30.5C 2.87419,40.1309 1.20753,50.4643 3.5,61.5C -2.01746,46.2934 1.31587,33.1267 13.5,22C 14.0944,21.5357 14.7611,21.369 15.5,21.5 Z"/></g>
<g><path style="opacity:1" fill="#fef172" d="M 761.5,36.5 C 759.01,39.6257 757.677,43.2924 757.5,47.5C 757.5,47.8333 757.5,48.1667 757.5,48.5C 756.414,48.62 755.747,49.2867 755.5,50.5C 752.702,61.8958 751.702,73.5624 752.5,85.5C 752.335,88.5184 752.502,91.5184 753,94.5C 754.554,101.93 756.388,109.263 758.5,116.5C 757.402,117.397 757.402,118.23 758.5,119C 757.234,119.309 756.067,119.809 755,120.5C 754.55,117.894 753.05,116.561 750.5,116.5C 750.151,119.99 751.651,122.323 755,123.5C 755.167,124.333 755.333,125.167 755.5,126C 754.22,128.36 753.553,130.86 753.5,133.5C 750.289,133.986 747.289,134.986 744.5,136.5C 744.512,133.858 743.179,132.525 740.5,132.5C 740.923,130.219 740.256,128.552 738.5,127.5C 738.322,124.784 737.822,122.117 737,119.5C 736.583,118.244 735.75,117.577 734.5,117.5C 732.565,103.254 732.065,88.9211 733,74.5C 734.012,69.7576 735.345,65.0909 737,60.5C 737.508,58.0958 738.675,57.4291 740.5,58.5C 741.343,56.7688 741.343,54.9354 740.5,53C 741.618,50.941 742.285,48.7743 742.5,46.5C 744.149,45.3515 745.649,44.0182 747,42.5C 748.416,43.5733 749.75,43.5733 751,42.5C 751.567,39.8323 752.067,37.1656 752.5,34.5C 755.685,34.9804 758.519,34.3137 761,32.5C 761.49,33.7932 761.657,35.1266 761.5,36.5 Z"/></g>
<g><path style="opacity:1" fill="#f4e875" d="M 25.5,27.5 C 20.1894,40.0872 23.1894,50.2539 34.5,58C 38.9252,60.2126 43.2585,62.3793 47.5,64.5C 43.6161,62.8442 40.1161,63.5108 37,66.5C 36.5,66.1667 36,65.8333 35.5,65.5C 36.1667,64.8333 36.8333,64.1667 37.5,63.5C 34.7185,62.048 32.2185,62.3813 30,64.5C 30.1953,62.8739 30.1953,61.2072 30,59.5C 29.6667,59.8333 29.3333,60.1667 29,60.5C 27.1089,58.61 24.9422,57.11 22.5,56C 22.5,54.6667 22.5,53.3333 22.5,52C 21.4911,49.8282 19.8244,48.6615 17.5,48.5C 17.4977,46.1691 18.331,44.1691 20,42.5C 20.7325,37.4594 21.5659,32.4594 22.5,27.5C 23.5,27.5 24.5,27.5 25.5,27.5 Z"/></g>
<g><path style="opacity:1" fill="#dad16f" d="M 477.5,42.5 C 476.269,50.2951 472.936,56.9618 467.5,62.5C 467.249,60.8297 466.582,59.3297 465.5,58C 467.134,57.5065 468.801,57.3398 470.5,57.5C 470.215,55.712 470.548,54.0453 471.5,52.5C 473.498,49.1714 475.498,45.8381 477.5,42.5 Z"/></g>
<g><path style="opacity:1" fill="#cdc46f" d="M 242.5,46.5 C 243.497,46.4701 244.164,46.9701 244.5,48C 246.053,52.0468 247.053,56.2135 247.5,60.5C 245.313,56.1046 243.646,51.4379 242.5,46.5 Z"/></g>
<g><path style="opacity:1" fill="#cdc36b" d="M 209.5,50.5 C 208.539,53.3283 208.705,55.9949 210,58.5C 210.223,56.1192 211.39,54.4525 213.5,53.5C 209.538,65.7274 205.204,77.7274 200.5,89.5C 200.354,86.1737 201.021,83.007 202.5,80C 202.318,77.4219 201.318,76.9219 199.5,78.5C 199.796,76.597 200.463,74.9303 201.5,73.5C 201.5,74.5 201.5,75.5 201.5,76.5C 202.5,76.5 203.5,76.5 204.5,76.5C 205.742,72.0459 207.075,67.5459 208.5,63C 208.318,60.4219 207.318,59.9219 205.5,61.5C 206.462,57.6052 207.796,53.9385 209.5,50.5 Z"/></g>
<g><path style="opacity:1" fill="#b4ae5a" d="M 757.5,48.5 C 754.019,60.5701 752.685,72.9034 753.5,85.5C 753.167,85.5 752.833,85.5 752.5,85.5C 751.702,73.5624 752.702,61.8958 755.5,50.5C 755.747,49.2867 756.414,48.62 757.5,48.5 Z"/></g>
<g><path style="opacity:1" fill="#fcf072" d="M 981.5,42.5 C 985.199,52.1988 991.865,58.8655 1001.5,62.5C 1001.41,63.4959 1001.75,64.3292 1002.5,65C 1007.81,66.4996 1013.14,67.6662 1018.5,68.5C 1018.83,68.5 1019.17,68.5 1019.5,68.5C 1020.43,69.3149 1021.43,70.1482 1022.5,71C 1027.47,71.2242 1032.14,72.3909 1036.5,74.5C 1042.13,75.5267 1047.8,76.1934 1053.5,76.5C 1055.29,76.366 1056.96,76.6993 1058.5,77.5C 1058.47,78.4972 1058.97,79.1639 1060,79.5C 1066.79,82.2799 1073.29,84.6133 1079.5,86.5C 1088.56,90.5611 1094.89,97.2278 1098.5,106.5C 1100.47,118.075 1100.97,129.742 1100,141.5C 1098.2,144.678 1096.7,148.012 1095.5,151.5C 1094.15,152.95 1092.48,153.617 1090.5,153.5C 1090.52,151.857 1089.85,150.524 1088.5,149.5C 1088.71,148.914 1089.04,148.414 1089.5,148C 1088.59,140.175 1087.42,132.341 1086,124.5C 1084.31,123.675 1084.15,122.675 1085.5,121.5C 1083.89,121.611 1082.22,121.278 1080.5,120.5C 1078.2,117.859 1075.86,115.192 1073.5,112.5C 1072.59,110.914 1072.59,109.414 1073.5,108C 1072.45,106.461 1071.12,106.295 1069.5,107.5C 1064.99,104.453 1059.99,102.787 1054.5,102.5C 1054.17,102.5 1053.83,102.5 1053.5,102.5C 1051.91,101.017 1050.24,99.517 1048.5,98C 1045.18,97.8612 1042.18,96.8612 1039.5,95C 1039.83,94.6667 1040.17,94.3333 1040.5,94C 1038.73,93.0296 1036.89,92.1963 1035,91.5C 1031.92,92.5627 1028.75,93.2293 1025.5,93.5C 1019.26,91.8501 1012.93,90.8501 1006.5,90.5C 1002.11,88.6538 997.778,86.4871 993.5,84C 991.19,83.5034 988.857,83.3367 986.5,83.5C 986.167,83.5 985.833,83.5 985.5,83.5C 984.766,82.2921 984.433,80.9587 984.5,79.5C 981.813,79.6585 979.48,78.8252 977.5,77C 979.645,76.2569 979.811,75.4235 978,74.5C 975.83,75.7201 973.663,75.7201 971.5,74.5C 961.816,66.7836 957.816,56.7836 959.5,44.5C 960.924,42.4855 961.59,40.1522 961.5,37.5C 965.724,27.943 972.39,20.6097 981.5,15.5C 994.345,11.9027 995.512,13.9027 985,21.5C 984.517,22.448 984.351,23.448 984.5,24.5C 983.5,24.5 982.5,24.5 981.5,24.5C 980.281,30.643 980.281,36.643 981.5,42.5 Z"/></g>
<g><path style="opacity:1" fill="#c5bf6a" d="M 1001.5,62.5 C 1007.25,64.5269 1012.92,66.5269 1018.5,68.5C 1013.14,67.6662 1007.81,66.4996 1002.5,65C 1001.75,64.3292 1001.41,63.4959 1001.5,62.5 Z"/></g>
<g><path style="opacity:1" fill="#b8b060" d="M 57.5,67.5 C 62.9739,68.7228 68.3073,70.0561 73.5,71.5C 72.8333,71.5 72.1667,71.5 71.5,71.5C 66.1773,71.6771 61.5106,70.3437 57.5,67.5 Z"/></g>
<g><path style="opacity:1" fill="#ded578" d="M 742.5,46.5 C 742.285,48.7743 741.618,50.941 740.5,53C 741.343,54.9354 741.343,56.7688 740.5,58.5C 738.675,57.4291 737.508,58.0958 737,60.5C 735.345,65.0909 734.012,69.7576 733,74.5C 732.065,88.9211 732.565,103.254 734.5,117.5C 728.794,97.812 729.294,78.1453 736,58.5C 737.904,54.2222 740.071,50.2222 742.5,46.5 Z"/></g>
<g><path style="opacity:1" fill="#cec66e" d="M 247.5,61.5 C 249.53,63.9218 251.197,66.7551 252.5,70C 253.322,72.4339 253.656,74.9339 253.5,77.5C 250.987,72.4532 248.987,67.1198 247.5,61.5 Z"/></g>
<g><path style="opacity:1" fill="#dbd273" d="M 71.5,71.5 C 72.1667,71.5 72.8333,71.5 73.5,71.5C 81.0863,72.5657 88.4196,74.2324 95.5,76.5C 89.7864,75.7383 84.1197,75.7383 78.5,76.5C 76.9568,73.575 74.6235,71.9084 71.5,71.5 Z"/></g>
<g><path style="opacity:1" fill="#f2e978" d="M 201.5,73.5 C 202.238,69.2854 203.572,65.2854 205.5,61.5C 207.318,59.9219 208.318,60.4219 208.5,63C 207.075,67.5459 205.742,72.0459 204.5,76.5C 203.5,76.5 202.5,76.5 201.5,76.5C 201.5,75.5 201.5,74.5 201.5,73.5 Z"/></g>
<g><path style="opacity:1" fill="#cfc66d" d="M 1019.5,68.5 C 1031.09,70.5658 1042.42,73.2325 1053.5,76.5C 1047.8,76.1934 1042.13,75.5267 1036.5,74.5C 1032.14,72.3909 1027.47,71.2242 1022.5,71C 1021.43,70.1482 1020.43,69.3149 1019.5,68.5 Z"/></g>
<g><path style="opacity:1" fill="#beb665" d="M 96.5,76.5 C 102.533,77.7315 108.2,79.7315 113.5,82.5C 108.402,81.8091 103.402,80.6425 98.5,79C 97.244,78.5831 96.5774,77.7498 96.5,76.5 Z"/></g>
<g><path style="opacity:1" fill="#dad172" d="M 971.5,74.5 C 973.663,75.7201 975.83,75.7201 978,74.5C 979.811,75.4235 979.645,76.2569 977.5,77C 979.48,78.8252 981.813,79.6585 984.5,79.5C 984.433,80.9587 984.766,82.2921 985.5,83.5C 980.291,81.2809 975.624,78.2809 971.5,74.5 Z"/></g>
<g><path style="opacity:1" fill="#cbc56f" d="M 253.5,78.5 C 254.376,78.3691 255.043,78.7025 255.5,79.5C 257.999,86.313 259.999,93.313 261.5,100.5C 258.32,93.45 255.653,86.1167 253.5,78.5 Z"/></g>
<g><path style="opacity:1" fill="#fcf072" d="M 226.5,2.5 C 235.584,2.19561 244.584,2.52895 253.5,3.5C 256.762,11.2855 259.428,19.2855 261.5,27.5C 261.942,32.6625 263.109,37.6625 265,42.5C 266.419,44.9929 267.919,47.3263 269.5,49.5C 276.094,66.6154 282.094,83.9487 287.5,101.5C 287.399,107.766 289.399,113.099 293.5,117.5C 293.5,117.833 293.5,118.167 293.5,118.5C 293.936,123.188 294.936,127.688 296.5,132C 294.791,134.267 293.957,137.434 294,141.5C 294.414,141.957 294.914,142.291 295.5,142.5C 296.694,139.381 298.194,139.048 300,141.5C 301.34,147.521 303.84,152.854 307.5,157.5C 309.033,161.433 310.367,165.433 311.5,169.5C 311.666,172.168 312.666,174.502 314.5,176.5C 304.339,177.865 294.005,178.531 283.5,178.5C 285.238,175.904 286.238,172.904 286.5,169.5C 286.614,166.622 285.948,163.956 284.5,161.5C 285.815,160.105 285.481,159.105 283.5,158.5C 282.702,156.922 282.202,155.256 282,153.5C 281.329,152.748 280.496,152.414 279.5,152.5C 278.29,146.236 276.624,140.069 274.5,134C 274.164,132.97 273.497,132.47 272.5,132.5C 272.506,127.849 271.173,123.849 268.5,120.5C 268.5,118.833 268.5,117.167 268.5,115.5C 265.784,115.614 263.784,114.614 262.5,112.5C 262.953,111.542 263.619,110.708 264.5,110C 262.998,106.995 261.998,103.829 261.5,100.5C 259.999,93.313 257.999,86.313 255.5,79.5C 255.043,78.7025 254.376,78.3691 253.5,78.5C 253.5,78.1667 253.5,77.8333 253.5,77.5C 253.656,74.9339 253.322,72.4339 252.5,70C 251.197,66.7551 249.53,63.9218 247.5,61.5C 247.5,61.1667 247.5,60.8333 247.5,60.5C 247.053,56.2135 246.053,52.0468 244.5,48C 244.164,46.9701 243.497,46.4701 242.5,46.5C 241.713,40.5566 240.046,34.8899 237.5,29.5C 238.609,27.7859 237.942,27.1192 235.5,27.5C 235.5,27.1667 235.5,26.8333 235.5,26.5C 235.264,23.0861 234.598,19.7527 233.5,16.5C 232.859,15.0065 231.859,14.0065 230.5,13.5C 230.5,13.1667 230.5,12.8333 230.5,12.5C 230.5,11.5 230.5,10.5 230.5,9.5C 229.167,9.5 227.833,9.5 226.5,9.5C 224.187,18.1396 221.854,26.8063 219.5,35.5C 219.5,35.8333 219.5,36.1667 219.5,36.5C 217.665,37.1223 216.498,38.4556 216,40.5C 215.833,39.5 215.667,38.5 215.5,37.5C 217.07,33.6442 218.07,29.6442 218.5,25.5C 220.398,17.47 223.064,9.8033 226.5,2.5 Z"/></g>
<g><path style="opacity:1" fill="#c8c16b" d="M 230.5,13.5 C 231.859,14.0065 232.859,15.0065 233.5,16.5C 234.598,19.7527 235.264,23.0861 235.5,26.5C 233.598,22.3447 231.931,18.0114 230.5,13.5 Z"/></g>
<g><path style="opacity:1" fill="#c3b968" d="M 230.5,12.5 C 229.778,12.0825 229.278,11.4158 229,10.5C 226.099,19.0493 222.933,27.3826 219.5,35.5C 221.854,26.8063 224.187,18.1396 226.5,9.5C 227.833,9.5 229.167,9.5 230.5,9.5C 230.5,10.5 230.5,11.5 230.5,12.5 Z"/></g>
<g><path style="opacity:1" fill="#dad072" d="M 986.5,83.5 C 988.857,83.3367 991.19,83.5034 993.5,84C 997.778,86.4871 1002.11,88.6538 1006.5,90.5C 999.335,89.3354 992.669,87.002 986.5,83.5 Z"/></g>
<g><path style="opacity:1" fill="#ccc36d" d="M 1058.5,77.5 C 1066.02,79.5535 1073.02,82.5535 1079.5,86.5C 1073.29,84.6133 1066.79,82.2799 1060,79.5C 1058.97,79.1639 1058.47,78.4972 1058.5,77.5 Z"/></g>
<g><path style="opacity:1" fill="#e5db73" d="M 113.5,82.5 C 123.926,85.942 131.926,92.2753 137.5,101.5C 136.292,100.766 134.959,100.433 133.5,100.5C 133.719,101.675 133.386,102.675 132.5,103.5C 131.933,100.788 131.599,98.1213 131.5,95.5C 129.821,93.8955 127.821,93.2289 125.5,93.5C 125.5,92.1667 125.5,90.8333 125.5,89.5C 123.4,89.5228 121.567,88.8561 120,87.5C 117.801,88.6454 115.635,88.6454 113.5,87.5C 114.376,86.7492 115.376,86.2492 116.5,86C 114.574,85.5776 113.574,84.4109 113.5,82.5 Z"/></g>
<g><path style="opacity:1" fill="#cac26d" d="M 436.5,82.5 C 443.067,83.7257 449.4,85.7257 455.5,88.5C 453.143,88.6633 450.81,88.4966 448.5,88C 444.312,86.0798 439.979,84.5798 435.5,83.5C 435.624,82.8933 435.957,82.56 436.5,82.5 Z"/></g>
<g><path style="opacity:1" fill="#e1d774" d="M 200.5,89.5 C 197.671,97.8129 195.171,106.146 193,114.5C 193.383,113.944 193.883,113.611 194.5,113.5C 194.5,114.5 194.5,115.5 194.5,116.5C 193.178,116.33 192.011,116.663 191,117.5C 190.667,115.833 190.333,114.167 190,112.5C 187.305,115.611 185.972,119.277 186,123.5C 185.119,126.014 183.619,128.014 181.5,129.5C 187.107,112.344 193.107,95.344 199.5,78.5C 201.318,76.9219 202.318,77.4219 202.5,80C 201.021,83.007 200.354,86.1737 200.5,89.5 Z"/></g>
<g><path style="opacity:1" fill="#d4cc71" d="M 901.5,56.5 C 906.295,67.8909 908.961,79.8909 909.5,92.5C 908.95,100.107 907.616,107.441 905.5,114.5C 906.692,101.17 906.692,87.8365 905.5,74.5C 903.745,68.5746 902.412,62.5746 901.5,56.5 Z"/></g>
<g><path style="opacity:1" fill="#d3ca76" d="M 41.5,88.5 C 44.5219,88.804 47.5219,89.304 50.5,90C 51.056,90.3826 51.3893,90.8826 51.5,91.5C 47.8379,91.2766 44.5046,90.2766 41.5,88.5 Z"/></g>
<g><path style="opacity:1" fill="#cac06a" d="M 51.5,91.5 C 54.8984,91.1796 58.2317,91.513 61.5,92.5C 62.2427,93.1818 62.9094,93.8485 63.5,94.5C 59.2393,94.1016 55.2393,93.1016 51.5,91.5 Z"/></g>
<g><path style="opacity:1" fill="#eadf75" d="M 1006.5,90.5 C 1012.93,90.8501 1019.26,91.8501 1025.5,93.5C 1028.75,93.2293 1031.92,92.5627 1035,91.5C 1036.89,92.1963 1038.73,93.0296 1040.5,94C 1040.17,94.3333 1039.83,94.6667 1039.5,95C 1042.18,96.8612 1045.18,97.8612 1048.5,98C 1050.24,99.517 1051.91,101.017 1053.5,102.5C 1037.69,98.6308 1022.02,94.6308 1006.5,90.5 Z"/></g>
<g><path style="opacity:1" fill="#e2d770" d="M 448.5,107.5 C 437.444,93.897 423.444,89.897 406.5,95.5C 407.335,94.0568 408.668,93.0568 410.5,92.5C 418.508,91.0013 426.342,91.3346 434,93.5C 437.155,92.7219 440.322,92.5552 443.5,93C 441.715,94.1628 439.715,94.8295 437.5,95C 440.417,97.8905 443.417,98.0572 446.5,95.5C 447.795,96.0983 449.128,96.5983 450.5,97C 448.785,97.7771 447.785,99.1105 447.5,101C 448.077,103.137 448.41,105.304 448.5,107.5 Z"/></g>
<g><path style="opacity:1" fill="#fcef72" d="M 464.5,10.5 C 475.994,18.1662 480.327,28.8328 477.5,42.5C 475.498,45.8381 473.498,49.1714 471.5,52.5C 470.548,54.0453 470.215,55.712 470.5,57.5C 468.801,57.3398 467.134,57.5065 465.5,58C 466.582,59.3297 467.249,60.8297 467.5,62.5C 458.706,71.4064 448.373,78.073 436.5,82.5C 435.957,82.56 435.624,82.8933 435.5,83.5C 439.979,84.5798 444.312,86.0798 448.5,88C 450.81,88.4966 453.143,88.6633 455.5,88.5C 460.224,90.5293 464.224,93.5293 467.5,97.5C 467.439,102.583 469.439,106.583 473.5,109.5C 477.343,117.383 479.01,125.716 478.5,134.5C 479.867,143.63 477.367,150.63 471,155.5C 470.091,158.513 469.258,161.513 468.5,164.5C 464.857,163.881 463.857,161.881 465.5,158.5C 464.528,156.695 463.361,155.028 462,153.5C 461.667,154.833 461.333,156.167 461,157.5C 460.252,155.668 459.252,154.001 458,152.5C 457.977,148.146 458.144,144.146 458.5,140.5C 456.852,134.317 456.018,127.984 456,121.5C 455.583,120.244 454.75,119.577 453.5,119.5C 452.383,115.266 450.716,111.266 448.5,107.5C 448.41,105.304 448.077,103.137 447.5,101C 447.785,99.1105 448.785,97.7771 450.5,97C 449.128,96.5983 447.795,96.0983 446.5,95.5C 443.417,98.0572 440.417,97.8905 437.5,95C 439.715,94.8295 441.715,94.1628 443.5,93C 440.322,92.5552 437.155,92.7219 434,93.5C 426.342,91.3346 418.508,91.0013 410.5,92.5C 408.668,93.0568 407.335,94.0568 406.5,95.5C 403.927,95.8515 401.594,95.3515 399.5,94C 401.447,91.9805 403.78,90.4805 406.5,89.5C 407.451,90.3256 408.451,90.4922 409.5,90C 408.663,88.9887 408.33,87.8221 408.5,86.5C 416.767,80.6889 425.1,74.8556 433.5,69C 439.105,63.9028 444.105,58.4028 448.5,52.5C 450.493,50.7889 452.327,48.7889 454,46.5C 454.919,36.7094 454.253,27.0428 452,17.5C 451.692,18.3081 451.192,18.9747 450.5,19.5C 449.583,18.8728 448.583,18.5394 447.5,18.5C 446.478,14.2131 445.145,10.0464 443.5,6C 444.833,5.83333 446.167,5.66667 447.5,5.5C 452.902,7.93548 458.569,9.60215 464.5,10.5 Z"/></g>
<g><path style="opacity:1" fill="#c7bd6f" d="M 81.5,98.5 C 86.0689,97.886 90.0689,98.886 93.5,101.5C 89.2976,100.868 85.2976,99.8684 81.5,98.5 Z"/></g>
<g><path style="opacity:1" fill="#dbd474" d="M 752.5,85.5 C 752.833,85.5 753.167,85.5 753.5,85.5C 754.939,99.1486 758.606,112.149 764.5,124.5C 763.883,124.611 763.383,124.944 763,125.5C 762.585,123.709 761.585,122.376 760,121.5C 759.802,119.618 759.302,117.952 758.5,116.5C 756.388,109.263 754.554,101.93 753,94.5C 752.502,91.5184 752.335,88.5184 752.5,85.5 Z"/></g>
<g><path style="opacity:1" fill="#e9e07b" d="M 375.5,6.5 C 375.167,40.8398 375.5,75.1731 376.5,109.5C 377.107,109.376 377.44,109.043 377.5,108.5C 386.717,99.6202 397.05,92.2868 408.5,86.5C 408.33,87.8221 408.663,88.9887 409.5,90C 408.451,90.4922 407.451,90.3256 406.5,89.5C 403.78,90.4805 401.447,91.9805 399.5,94C 401.594,95.3515 403.927,95.8515 406.5,95.5C 395.173,100.506 385.173,107.506 376.5,116.5C 375.503,135.659 375.17,154.993 375.5,174.5C 374.503,154.34 374.17,134.007 374.5,113.5C 377.957,113.333 378.29,112.333 375.5,110.5C 374.17,75.669 374.17,41.0024 375.5,6.5 Z"/></g>
<g><path style="opacity:1" fill="#ddd472" d="M 1054.5,102.5 C 1059.99,102.787 1064.99,104.453 1069.5,107.5C 1071.12,106.295 1072.45,106.461 1073.5,108C 1072.59,109.414 1072.59,110.914 1073.5,112.5C 1067.55,108.408 1061.22,105.075 1054.5,102.5 Z"/></g>
<g><path style="opacity:1" fill="#d0c66b" d="M 883.5,83.5 C 884.15,83.8039 884.817,84.1373 885.5,84.5C 886.718,91.7803 887.384,99.1136 887.5,106.5C 887.872,114.277 886.539,121.611 883.5,128.5C 886.114,113.489 886.114,98.489 883.5,83.5 Z"/></g>
<g><path style="opacity:1" fill="#cec96d" d="M 287.5,101.5 C 290.068,106.525 292.068,111.859 293.5,117.5C 289.399,113.099 287.399,107.766 287.5,101.5 Z"/></g>
<g><path style="opacity:1" fill="#c8c06a" d="M 223.5,108.5 C 217.491,108.334 211.491,108.501 205.5,109C 202.061,111.198 198.394,112.698 194.5,113.5C 203.278,106.544 212.945,104.877 223.5,108.5 Z"/></g>
<g><path style="opacity:1" fill="#c8c26b" d="M 225.5,108.5 C 231.659,110.331 237.659,112.331 243.5,114.5C 237.981,114.163 232.648,112.996 227.5,111C 226.619,110.292 225.953,109.458 225.5,108.5 Z"/></g>
<g><path style="opacity:1" fill="#dcd374" d="M 467.5,97.5 C 476.841,107.344 481.174,119.177 480.5,133C 481.063,145.674 477.063,156.508 468.5,165.5C 468.5,165.167 468.5,164.833 468.5,164.5C 469.258,161.513 470.091,158.513 471,155.5C 477.367,150.63 479.867,143.63 478.5,134.5C 479.01,125.716 477.343,117.383 473.5,109.5C 469.439,106.583 467.439,102.583 467.5,97.5 Z"/></g>
<g><path style="opacity:1" fill="#fef172" d="M 223.5,108.5 C 224.167,108.5 224.833,108.5 225.5,108.5C 225.953,109.458 226.619,110.292 227.5,111C 232.648,112.996 237.981,114.163 243.5,114.5C 243.833,114.5 244.167,114.5 244.5,114.5C 244.414,115.496 244.748,116.329 245.5,117C 248.817,117.498 252.15,117.665 255.5,117.5C 255.5,118.833 255.5,120.167 255.5,121.5C 256.5,121.5 257.5,121.5 258.5,121.5C 258.5,123.167 258.5,124.833 258.5,126.5C 258.5,127.167 258.167,127.5 257.5,127.5C 254.813,127.336 252.146,127.503 249.5,128C 246.277,131.327 242.277,133.16 237.5,133.5C 233.446,132.976 229.446,132.143 225.5,131C 225.833,130.667 226.167,130.333 226.5,130C 224.468,127.987 222.134,126.487 219.5,125.5C 214.878,126.385 210.211,126.718 205.5,126.5C 205.167,126.5 204.833,126.5 204.5,126.5C 199.695,125.513 194.695,125.179 189.5,125.5C 189.5,126.5 189.5,127.5 189.5,128.5C 186.671,128.325 185.004,129.658 184.5,132.5C 183.808,131.975 183.308,131.308 183,130.5C 183.813,133.5 183.647,136.5 182.5,139.5C 181.5,139.5 180.5,139.5 179.5,139.5C 179.5,138.5 179.5,137.5 179.5,136.5C 179.767,134.035 180.434,131.701 181.5,129.5C 183.619,128.014 185.119,126.014 186,123.5C 185.972,119.277 187.305,115.611 190,112.5C 190.333,114.167 190.667,115.833 191,117.5C 192.011,116.663 193.178,116.33 194.5,116.5C 194.5,115.5 194.5,114.5 194.5,113.5C 198.394,112.698 202.061,111.198 205.5,109C 211.491,108.501 217.491,108.334 223.5,108.5 Z"/></g>
<g><path style="opacity:1" fill="#ebe072" d="M 262.5,112.5 C 263.784,114.614 265.784,115.614 268.5,115.5C 268.5,117.167 268.5,118.833 268.5,120.5C 267.442,119.4 266.608,118.066 266,116.5C 264.209,120.439 261.709,123.772 258.5,126.5C 258.5,124.833 258.5,123.167 258.5,121.5C 257.5,121.5 256.5,121.5 255.5,121.5C 255.5,120.167 255.5,118.833 255.5,117.5C 252.15,117.665 248.817,117.498 245.5,117C 244.748,116.329 244.414,115.496 244.5,114.5C 250.74,116.016 256.74,115.349 262.5,112.5 Z"/></g>
<g><path style="opacity:1" fill="#f9ed73" d="M 758.5,116.5 C 759.302,117.952 759.802,119.618 760,121.5C 761.585,122.376 762.585,123.709 763,125.5C 763.383,124.944 763.883,124.611 764.5,124.5C 774.139,144.139 788.806,158.806 808.5,168.5C 808.414,169.496 808.748,170.329 809.5,171C 813.965,172.926 818.632,173.76 823.5,173.5C 823.918,174.222 824.584,174.722 825.5,175C 829.833,175.333 834.167,175.667 838.5,176C 838.167,176.333 837.833,176.667 837.5,177C 826.221,178.383 814.888,178.883 803.5,178.5C 775.177,173.175 754.177,157.842 740.5,132.5C 743.179,132.525 744.512,133.858 744.5,136.5C 747.289,134.986 750.289,133.986 753.5,133.5C 753.553,130.86 754.22,128.36 755.5,126C 755.333,125.167 755.167,124.333 755,123.5C 751.651,122.323 750.151,119.99 750.5,116.5C 753.05,116.561 754.55,117.894 755,120.5C 756.067,119.809 757.234,119.309 758.5,119C 757.402,118.23 757.402,117.397 758.5,116.5 Z"/></g>
<g><path style="opacity:1" fill="#ebe279" d="M 3.5,108.5 C 7.94261,124.387 15.2759,138.72 25.5,151.5C 19.8357,152.501 17.5024,150.167 18.5,144.5C 16.8561,144.714 15.3561,144.38 14,143.5C 11.4912,138.46 9.49117,133.127 8,127.5C 7.33333,128.167 6.66667,128.833 6,129.5C 5.60534,127.821 5.772,126.155 6.5,124.5C 5.25395,121.972 4.25395,119.305 3.5,116.5C 2.3341,128.486 2.16744,140.486 3,152.5C 5.5,154.667 8,156.833 10.5,159C 13.0135,160.252 15.6802,160.752 18.5,160.5C 18.3505,159.448 18.5172,158.448 19,157.5C 19.6355,158.966 20.4688,160.3 21.5,161.5C 20.624,162.251 19.624,162.751 18.5,163C 20.0009,164.252 21.6675,165.252 23.5,166C 24.2524,166.671 24.5858,167.504 24.5,168.5C 15.9713,164.741 8.30467,159.741 1.5,153.5C 0.849661,138.129 1.51633,123.129 3.5,108.5 Z"/></g>
<g><path style="opacity:1" fill="#8f884d" d="M 3.5,108.5 C 1.51633,123.129 0.849661,138.129 1.5,153.5C 0.503802,138.342 0.170469,123.009 0.5,107.5C 1.79105,107.263 2.79105,107.596 3.5,108.5 Z"/></g>
<g><path style="opacity:1" fill="#978f4e" d="M 505.5,42.5 C 521.167,42.5 536.833,42.5 552.5,42.5C 552.5,76.1667 552.5,109.833 552.5,143.5C 536.833,143.5 521.167,143.5 505.5,143.5C 505.5,109.833 505.5,76.1667 505.5,42.5 Z M 534.5,124.5 C 529.516,126.326 524.849,128.659 520.5,131.5C 516.266,132.617 512.266,134.284 508.5,136.5C 508.334,132.486 508.501,128.486 509,124.5C 514.642,121.599 520.142,118.599 525.5,115.5C 527.284,115.107 528.95,114.441 530.5,113.5C 534.818,112.008 538.818,110.008 542.5,107.5C 542.833,107.5 543.167,107.5 543.5,107.5C 545.386,106.639 547.22,105.639 549,104.5C 549.828,108.871 549.661,113.205 548.5,117.5C 543.741,119.879 539.075,122.213 534.5,124.5 Z M 548.5,77.5 C 549.794,81.7327 549.794,86.0661 548.5,90.5C 546.181,90.9925 544.181,91.9925 542.5,93.5C 532.858,97.3233 523.524,101.657 514.5,106.5C 512.847,106.66 511.514,107.326 510.5,108.5C 509.206,106.952 508.539,104.952 508.5,102.5C 508.833,100.5 509.167,98.5 509.5,96.5C 511.396,95.7255 513.063,94.7255 514.5,93.5C 521.024,90.7365 527.357,87.7365 533.5,84.5C 533.833,84.5 534.167,84.5 534.5,84.5C 539.167,82.1667 543.833,79.8333 548.5,77.5 Z M 548.5,50.5 C 549.483,54.2984 549.817,58.2984 549.5,62.5C 543.187,64.9899 537.187,67.9899 531.5,71.5C 525.402,73.384 519.735,76.0506 514.5,79.5C 512.742,79.8769 511.075,80.5435 509.5,81.5C 508.34,77.5411 508.173,73.5411 509,69.5C 510.78,68.3606 512.614,67.3606 514.5,66.5C 524.289,62.1058 533.955,57.4391 543.5,52.5C 545.284,52.1075 546.95,51.4408 548.5,50.5 Z M 528.5,44.5 C 524.599,47.4833 519.932,50.15 514.5,52.5C 512.742,52.8769 511.075,53.5435 509.5,54.5C 508.513,51.2317 508.18,47.8984 508.5,44.5C 515.167,44.5 521.833,44.5 528.5,44.5 Z M 549.5,140.5 C 542.646,140.824 535.979,140.491 529.5,139.5C 534.919,137.956 539.919,135.622 544.5,132.5C 544.833,132.5 545.167,132.5 545.5,132.5C 546.583,132.461 547.583,132.127 548.5,131.5C 549.484,134.428 549.817,137.428 549.5,140.5 Z"/></g>
<g><path style="opacity:1" fill="#c9c06d" d="M 525.5,115.5 C 520.142,118.599 514.642,121.599 509,124.5C 508.501,128.486 508.334,132.486 508.5,136.5C 507.513,131.695 507.179,126.695 507.5,121.5C 513.512,119.492 519.512,117.492 525.5,115.5 Z"/></g>
<g><path style="opacity:1" fill="#fbf074" d="M 543.5,107.5 C 543.167,107.5 542.833,107.5 542.5,107.5C 537.605,107.947 533.605,109.947 530.5,113.5C 528.95,114.441 527.284,115.107 525.5,115.5C 519.512,117.492 513.512,119.492 507.5,121.5C 507.5,117.5 507.5,113.5 507.5,109.5C 508.791,109.737 509.791,109.404 510.5,108.5C 511.514,107.326 512.847,106.66 514.5,106.5C 520.563,105.423 526.229,103.256 531.5,100C 534.167,100 536.833,100 539.5,100C 538.328,99.5814 537.328,98.9147 536.5,98C 538.859,96.7575 540.859,95.2575 542.5,93.5C 545.394,93.9577 547.894,93.291 550,91.5C 550.499,95.4862 550.666,99.4862 550.5,103.5C 548.167,103.5 545.833,103.5 543.5,103.5C 543.5,104.833 543.5,106.167 543.5,107.5 Z"/></g>
<g><path style="opacity:1" fill="#b6b15f" d="M 542.5,107.5 C 538.818,110.008 534.818,112.008 530.5,113.5C 533.605,109.947 537.605,107.947 542.5,107.5 Z"/></g>
<g><path style="opacity:1" fill="#ddd475" d="M 542.5,93.5 C 540.859,95.2575 538.859,96.7575 536.5,98C 537.328,98.9147 538.328,99.5814 539.5,100C 536.833,100 534.167,100 531.5,100C 526.229,103.256 520.563,105.423 514.5,106.5C 523.524,101.657 532.858,97.3233 542.5,93.5 Z"/></g>
<g><path style="opacity:1" fill="#c3ba73" d="M 507.5,93.5 C 509.833,93.5 512.167,93.5 514.5,93.5C 513.063,94.7255 511.396,95.7255 509.5,96.5C 509.167,98.5 508.833,100.5 508.5,102.5C 508.539,104.952 509.206,106.952 510.5,108.5C 509.791,109.404 508.791,109.737 507.5,109.5C 507.5,104.167 507.5,98.8333 507.5,93.5 Z"/></g>
<g><path style="opacity:1" fill="#eae17a" d="M 551.5,46.5 C 551.5,74.5 551.5,102.5 551.5,130.5C 551.167,130.5 550.833,130.5 550.5,130.5C 548.219,130.077 546.552,130.744 545.5,132.5C 545.167,132.5 544.833,132.5 544.5,132.5C 544.5,131.5 544.5,130.5 544.5,129.5C 546.5,129.5 548.5,129.5 550.5,129.5C 550.5,128.167 550.5,126.833 550.5,125.5C 549.5,125.5 548.5,125.5 547.5,125.5C 547.48,123.857 548.147,122.524 549.5,121.5C 548.833,121.167 548.167,120.833 547.5,120.5C 543.535,122.91 539.201,124.243 534.5,124.5C 539.075,122.213 543.741,119.879 548.5,117.5C 549.661,113.205 549.828,108.871 549,104.5C 547.22,105.639 545.386,106.639 543.5,107.5C 543.5,106.167 543.5,104.833 543.5,103.5C 545.833,103.5 548.167,103.5 550.5,103.5C 550.666,99.4862 550.499,95.4862 550,91.5C 547.894,93.291 545.394,93.9577 542.5,93.5C 544.181,91.9925 546.181,90.9925 548.5,90.5C 549.805,88.6028 550.471,86.2695 550.5,83.5C 550.167,81.1667 549.833,78.8333 549.5,76.5C 548.893,76.6236 548.56,76.9569 548.5,77.5C 543.833,79.8333 539.167,82.1667 534.5,84.5C 535.167,82.5 535.833,80.5 536.5,78.5C 540.819,79.2008 544.486,78.0341 547.5,75C 546.663,73.9887 546.33,72.8221 546.5,71.5C 548.355,71.728 549.188,71.0613 549,69.5C 546.876,68.7728 544.709,68.1062 542.5,67.5C 540.77,68.0256 539.436,69.0256 538.5,70.5C 536.257,71.4742 533.924,71.8076 531.5,71.5C 537.187,67.9899 543.187,64.9899 549.5,62.5C 550.811,58.3171 550.811,53.9838 549.5,49.5C 548.893,49.6236 548.56,49.9569 548.5,50.5C 546.95,51.4408 545.284,52.1075 543.5,52.5C 543.586,51.5041 543.252,50.6708 542.5,50C 545.963,49.8826 548.963,48.7159 551.5,46.5 Z"/></g>
<g><path style="opacity:1" fill="#f2e773" d="M 531.5,71.5 C 528.467,73.8677 525.134,76.0343 521.5,78C 529.081,80.8242 529.081,82.1575 521.5,82C 520.138,79.5612 518.305,79.0612 516,80.5C 516.617,82.0948 516.284,83.4281 515,84.5C 512.31,83.5411 511.976,84.2078 514,86.5C 514.333,86.1667 514.667,85.8333 515,85.5C 517.796,86.2113 520.63,86.878 523.5,87.5C 524.197,85.6155 525.197,85.2822 526.5,86.5C 528.618,85.0541 530.951,84.3874 533.5,84.5C 527.357,87.7365 521.024,90.7365 514.5,93.5C 512.167,93.5 509.833,93.5 507.5,93.5C 507.674,90.1262 508.174,86.7928 509,83.5C 510.399,82.7734 511.899,82.2734 513.5,82C 514.252,81.3292 514.586,80.4959 514.5,79.5C 519.735,76.0506 525.402,73.384 531.5,71.5 Z"/></g>
<g><path style="opacity:1" fill="#837c2e" d="M 548.5,77.5 C 548.56,76.9569 548.893,76.6236 549.5,76.5C 549.833,78.8333 550.167,81.1667 550.5,83.5C 550.471,86.2695 549.805,88.6028 548.5,90.5C 549.794,86.0661 549.794,81.7327 548.5,77.5 Z"/></g>
<g><path style="opacity:1" fill="#fdf172" d="M 534.5,84.5 C 534.167,84.5 533.833,84.5 533.5,84.5C 530.951,84.3874 528.618,85.0541 526.5,86.5C 525.197,85.2822 524.197,85.6155 523.5,87.5C 520.63,86.878 517.796,86.2113 515,85.5C 514.667,85.8333 514.333,86.1667 514,86.5C 511.976,84.2078 512.31,83.5411 515,84.5C 516.284,83.4281 516.617,82.0948 516,80.5C 518.305,79.0612 520.138,79.5612 521.5,82C 529.081,82.1575 529.081,80.8242 521.5,78C 525.134,76.0343 528.467,73.8677 531.5,71.5C 533.924,71.8076 536.257,71.4742 538.5,70.5C 539.436,69.0256 540.77,68.0256 542.5,67.5C 544.709,68.1062 546.876,68.7728 549,69.5C 549.188,71.0613 548.355,71.728 546.5,71.5C 546.33,72.8221 546.663,73.9887 547.5,75C 544.486,78.0341 540.819,79.2008 536.5,78.5C 535.833,80.5 535.167,82.5 534.5,84.5 Z"/></g>
<g><path style="opacity:1" fill="#f9ed73" d="M 528.5,44.5 C 528.5,44.1667 528.5,43.8333 528.5,43.5C 536.167,43.5 543.833,43.5 551.5,43.5C 551.5,44.5 551.5,45.5 551.5,46.5C 548.963,48.7159 545.963,49.8826 542.5,50C 543.252,50.6708 543.586,51.5041 543.5,52.5C 533.955,57.4391 524.289,62.1058 514.5,66.5C 514.083,65.8761 513.416,65.5427 512.5,65.5C 510.944,66.5471 509.277,67.2137 507.5,67.5C 507.241,63.7604 507.574,60.0938 508.5,56.5C 510.396,55.5344 512.396,55.2011 514.5,55.5C 514.5,54.5 514.5,53.5 514.5,52.5C 519.932,50.15 524.599,47.4833 528.5,44.5 Z"/></g>
<g><path style="opacity:1" fill="#7d7629" d="M 548.5,50.5 C 548.56,49.9569 548.893,49.6236 549.5,49.5C 550.811,53.9838 550.811,58.3171 549.5,62.5C 549.817,58.2984 549.483,54.2984 548.5,50.5 Z"/></g>
<g><path style="opacity:1" fill="#d0c86e" d="M 905.5,115.5 C 902.909,125.983 898.243,135.316 891.5,143.5C 895.041,134.747 898.875,126.08 903,117.5C 903.708,116.619 904.542,115.953 905.5,115.5 Z"/></g>
<g><path style="opacity:1" fill="#b7af61" d="M 962.5,112.5 C 961.883,112.389 961.383,112.056 961,111.5C 960.5,125.496 960.333,139.496 960.5,153.5C 959.883,153.389 959.383,153.056 959,152.5C 958.333,137.833 958.333,123.167 959,108.5C 960,107.167 961,107.167 962,108.5C 962.49,109.793 962.657,111.127 962.5,112.5 Z"/></g>
<g><path style="opacity:1" fill="#c7c26b" d="M 734.5,117.5 C 735.75,117.577 736.583,118.244 737,119.5C 737.822,122.117 738.322,124.784 738.5,127.5C 736.206,124.63 734.872,121.297 734.5,117.5 Z"/></g>
<g><path style="opacity:1" fill="#c0bb62" d="M 204.5,126.5 C 199.308,126.091 194.308,126.758 189.5,128.5C 189.5,127.5 189.5,126.5 189.5,125.5C 194.695,125.179 199.695,125.513 204.5,126.5 Z"/></g>
<g><path style="opacity:1" fill="#faee73" d="M 962.5,112.5 C 966.89,126.613 973.89,139.279 983.5,150.5C 983.543,153.088 984.543,155.254 986.5,157C 984.193,158.828 984.526,160.494 987.5,162C 990.362,162.27 993.028,163.104 995.5,164.5C 993.941,166.131 991.941,166.964 989.5,167C 991.918,169.31 991.252,169.976 987.5,169C 986.241,168.077 984.908,167.243 983.5,166.5C 984.025,165.808 984.692,165.308 985.5,165C 978.892,163.539 972.558,161.372 966.5,158.5C 963.891,157.557 961.891,155.89 960.5,153.5C 960.333,139.496 960.5,125.496 961,111.5C 961.383,112.056 961.883,112.389 962.5,112.5 Z"/></g>
<g><path style="opacity:1" fill="#ccc479" d="M 141.5,109.5 C 142.776,111.562 143.61,113.896 144,116.5C 144.822,124.012 144.655,131.345 143.5,138.5C 143.812,128.752 143.145,119.085 141.5,109.5 Z"/></g>
<g><path style="opacity:1" fill="#cac36c" d="M 268.5,120.5 C 271.173,123.849 272.506,127.849 272.5,132.5C 270.595,128.784 269.261,124.784 268.5,120.5 Z"/></g>
<g><path style="opacity:1" fill="#b3ab61" d="M 738.5,127.5 C 740.256,128.552 740.923,130.219 740.5,132.5C 739.069,131.22 738.402,129.553 738.5,127.5 Z"/></g>
<g><path style="opacity:1" fill="#e2d873" d="M 257.5,127.5 C 256.284,129.451 254.618,130.951 252.5,132C 243.283,136.033 233.95,136.366 224.5,133C 218.021,130.897 211.687,128.73 205.5,126.5C 210.211,126.718 214.878,126.385 219.5,125.5C 222.134,126.487 224.468,127.987 226.5,130C 226.167,130.333 225.833,130.667 225.5,131C 229.446,132.143 233.446,132.976 237.5,133.5C 242.277,133.16 246.277,131.327 249.5,128C 252.146,127.503 254.813,127.336 257.5,127.5 Z"/></g>
<g><path style="opacity:1" fill="#f9ee72" d="M 544.5,132.5 C 539.919,135.622 534.919,137.956 529.5,139.5C 528.5,139.833 527.833,140.5 527.5,141.5C 521.167,141.5 514.833,141.5 508.5,141.5C 508.33,140.178 508.663,139.011 509.5,138C 513.527,136.324 517.194,134.158 520.5,131.5C 524.849,128.659 529.516,126.326 534.5,124.5C 539.201,124.243 543.535,122.91 547.5,120.5C 548.167,120.833 548.833,121.167 549.5,121.5C 548.147,122.524 547.48,123.857 547.5,125.5C 548.5,125.5 549.5,125.5 550.5,125.5C 550.5,126.833 550.5,128.167 550.5,129.5C 548.5,129.5 546.5,129.5 544.5,129.5C 544.5,130.5 544.5,131.5 544.5,132.5 Z"/></g>
<g><path style="opacity:1" fill="#f3ea83" d="M 707.5,19.5 C 707.167,22.8333 706.833,26.1667 706.5,29.5C 705.501,79.3306 705.168,129.331 705.5,179.5C 702.833,179.5 700.167,179.5 697.5,179.5C 694.768,172.305 692.435,164.971 690.5,157.5C 692.074,157.937 693.241,158.937 694,160.5C 695.243,165.79 696.577,171.123 698,176.5C 699.956,176.784 702.123,176.784 704.5,176.5C 704.333,125.832 704.5,75.1656 705,24.5C 705.099,22.3474 705.933,20.6808 707.5,19.5 Z"/></g>
<g><path style="opacity:1" fill="#d4cb6d" d="M 676.5,127.5 C 677.583,127.539 678.583,127.873 679.5,128.5C 682.166,133.164 683.833,138.164 684.5,143.5C 681.326,138.484 678.659,133.151 676.5,127.5 Z"/></g>
<g><path style="opacity:1" fill="#e8dd76" d="M 293.5,118.5 C 298.538,131.273 303.204,144.273 307.5,157.5C 303.84,152.854 301.34,147.521 300,141.5C 298.194,139.048 296.694,139.381 295.5,142.5C 294.914,142.291 294.414,141.957 294,141.5C 293.957,137.434 294.791,134.267 296.5,132C 294.936,127.688 293.936,123.188 293.5,118.5 Z"/></g>
<g><path style="opacity:1" fill="#cac172" d="M 126.5,128.5 C 127.725,129.152 128.392,130.319 128.5,132C 130.085,137.426 129.752,142.593 127.5,147.5C 128.627,141.117 128.294,134.784 126.5,128.5 Z"/></g>
<g><path style="opacity:1" fill="#c6bf6a" d="M 272.5,132.5 C 273.497,132.47 274.164,132.97 274.5,134C 276.624,140.069 278.29,146.236 279.5,152.5C 276.792,146.047 274.459,139.38 272.5,132.5 Z"/></g>
<g><path style="opacity:1" fill="#efe78e" d="M 528.5,43.5 C 528.5,43.8333 528.5,44.1667 528.5,44.5C 521.833,44.5 515.167,44.5 508.5,44.5C 508.18,47.8984 508.513,51.2317 509.5,54.5C 511.075,53.5435 512.742,52.8769 514.5,52.5C 514.5,53.5 514.5,54.5 514.5,55.5C 512.396,55.2011 510.396,55.5344 508.5,56.5C 507.574,60.0938 507.241,63.7604 507.5,67.5C 509.277,67.2137 510.944,66.5471 512.5,65.5C 513.416,65.5427 514.083,65.8761 514.5,66.5C 512.614,67.3606 510.78,68.3606 509,69.5C 508.173,73.5411 508.34,77.5411 509.5,81.5C 511.075,80.5435 512.742,79.8769 514.5,79.5C 514.586,80.4959 514.252,81.3292 513.5,82C 511.899,82.2734 510.399,82.7734 509,83.5C 508.174,86.7928 507.674,90.1262 507.5,93.5C 507.5,98.8333 507.5,104.167 507.5,109.5C 507.5,113.5 507.5,117.5 507.5,121.5C 507.179,126.695 507.513,131.695 508.5,136.5C 512.266,134.284 516.266,132.617 520.5,131.5C 517.194,134.158 513.527,136.324 509.5,138C 508.663,139.011 508.33,140.178 508.5,141.5C 514.833,141.5 521.167,141.5 527.5,141.5C 535.019,141.825 542.352,141.492 549.5,140.5C 550.479,137.375 550.813,134.042 550.5,130.5C 550.833,130.5 551.167,130.5 551.5,130.5C 551.5,134.5 551.5,138.5 551.5,142.5C 536.5,142.5 521.5,142.5 506.5,142.5C 506.5,109.5 506.5,76.5 506.5,43.5C 513.833,43.5 521.167,43.5 528.5,43.5 Z M 549.5,140.5 C 542.646,140.824 535.979,140.491 529.5,139.5C 534.919,137.956 539.919,135.622 544.5,132.5C 544.833,132.5 545.167,132.5 545.5,132.5C 546.583,132.461 547.583,132.127 548.5,131.5C 549.484,134.428 549.817,137.428 549.5,140.5 Z"/></g>
<g><path style="opacity:1" fill="#817b30" d="M 529.5,139.5 C 535.979,140.491 542.646,140.824 549.5,140.5C 542.352,141.492 535.019,141.825 527.5,141.5C 527.833,140.5 528.5,139.833 529.5,139.5 Z"/></g>
<g><path style="opacity:1" fill="#8a803a" d="M 550.5,130.5 C 550.813,134.042 550.479,137.375 549.5,140.5C 549.817,137.428 549.484,134.428 548.5,131.5C 547.583,132.127 546.583,132.461 545.5,132.5C 546.552,130.744 548.219,130.077 550.5,130.5 Z"/></g>
<g><path style="opacity:1" fill="#f5e974" d="M 453.5,119.5 C 454.75,119.577 455.583,120.244 456,121.5C 456.018,127.984 456.852,134.317 458.5,140.5C 458.144,144.146 457.977,148.146 458,152.5C 459.252,154.001 460.252,155.668 461,157.5C 461.333,156.167 461.667,154.833 462,153.5C 463.361,155.028 464.528,156.695 465.5,158.5C 463.857,161.881 464.857,163.881 468.5,164.5C 468.5,164.833 468.5,165.167 468.5,165.5C 462.52,172.661 454.853,176.994 445.5,178.5C 423.833,178.5 402.167,178.5 380.5,178.5C 380.5,177.833 380.5,177.167 380.5,176.5C 393.837,176.667 407.171,176.5 420.5,176C 423.522,175.902 426.189,175.068 428.5,173.5C 445.708,165.561 454.708,151.894 455.5,132.5C 455.017,128.117 454.35,123.784 453.5,119.5 Z"/></g>
<g><path style="opacity:1" fill="#e0d671" d="M 1098.5,106.5 C 1105.85,123.63 1104.69,140.297 1095,156.5C 1091.62,161.377 1087.46,165.377 1082.5,168.5C 1082.63,166.8 1083.29,165.3 1084.5,164C 1083.2,162.061 1083.87,160.894 1086.5,160.5C 1088.17,162.167 1089.17,161.833 1089.5,159.5C 1088.24,157.321 1086.74,155.321 1085,153.5C 1084.51,154.793 1084.34,156.127 1084.5,157.5C 1083.5,157.5 1082.5,157.5 1081.5,157.5C 1088.36,144.99 1088.03,132.657 1080.5,120.5C 1082.22,121.278 1083.89,121.611 1085.5,121.5C 1084.15,122.675 1084.31,123.675 1086,124.5C 1087.42,132.341 1088.59,140.175 1089.5,148C 1089.04,148.414 1088.71,148.914 1088.5,149.5C 1089.85,150.524 1090.52,151.857 1090.5,153.5C 1092.48,153.617 1094.15,152.95 1095.5,151.5C 1096.7,148.012 1098.2,144.678 1100,141.5C 1100.97,129.742 1100.47,118.075 1098.5,106.5 Z"/></g>
<g><path style="opacity:1" fill="#fcf072" d="M 25.5,151.5 C 28.859,154.529 32.1924,157.529 35.5,160.5C 35.6567,161.873 35.49,163.207 35,164.5C 34.1072,163.289 33.2739,163.289 32.5,164.5C 34.8156,167.427 36.3156,167.093 37,163.5C 38.2051,164.071 39.3717,164.738 40.5,165.5C 39.5,166.833 38.5,168.167 37.5,169.5C 39.6241,170.149 41.6241,170.983 43.5,172C 40.5184,172.498 37.5184,172.665 34.5,172.5C 30.8632,171.737 27.5299,170.403 24.5,168.5C 24.5858,167.504 24.2524,166.671 23.5,166C 21.6675,165.252 20.0009,164.252 18.5,163C 19.624,162.751 20.624,162.251 21.5,161.5C 20.4688,160.3 19.6355,158.966 19,157.5C 18.5172,158.448 18.3505,159.448 18.5,160.5C 15.6802,160.752 13.0135,160.252 10.5,159C 8,156.833 5.5,154.667 3,152.5C 2.16744,140.486 2.3341,128.486 3.5,116.5C 4.25395,119.305 5.25395,121.972 6.5,124.5C 5.772,126.155 5.60534,127.821 6,129.5C 6.66667,128.833 7.33333,128.167 8,127.5C 9.49117,133.127 11.4912,138.46 14,143.5C 15.3561,144.38 16.8561,144.714 18.5,144.5C 17.5024,150.167 19.8357,152.501 25.5,151.5 Z"/></g>
<g><path style="opacity:1" fill="#e4d974" d="M 189.5,128.5 C 182.683,138.45 179.183,149.45 179,161.5C 180.274,165.154 181.44,168.82 182.5,172.5C 181.18,171.058 179.514,170.392 177.5,170.5C 177.617,168.516 176.95,166.85 175.5,165.5C 176.527,162.946 175.694,160.946 173,159.5C 172.086,164.338 169.92,168.338 166.5,171.5C 170.659,159.681 174.992,148.014 179.5,136.5C 179.5,137.5 179.5,138.5 179.5,139.5C 180.5,139.5 181.5,139.5 182.5,139.5C 183.647,136.5 183.813,133.5 183,130.5C 183.308,131.308 183.808,131.975 184.5,132.5C 185.004,129.658 186.671,128.325 189.5,128.5 Z"/></g>
<g><path style="opacity:1" fill="#f3e782" d="M 555.5,150.5 C 538.167,150.5 520.833,150.5 503.5,150.5C 502.539,148.735 502.205,146.735 502.5,144.5C 520.17,144.333 537.836,144.5 555.5,145C 556.752,146.828 556.752,148.661 555.5,150.5 Z"/></g>
<g><path style="opacity:1" fill="#fdf172" d="M 504.5,145.5 C 521.167,145.5 537.833,145.5 554.5,145.5C 554.5,146.833 554.5,148.167 554.5,149.5C 537.833,149.5 521.167,149.5 504.5,149.5C 504.5,148.167 504.5,146.833 504.5,145.5 Z"/></g>
<g><path style="opacity:1" fill="#4c4409" d="M 503.5,150.5 C 520.833,150.5 538.167,150.5 555.5,150.5C 555.158,151.338 554.492,151.672 553.5,151.5C 537.325,151.17 521.325,151.504 505.5,152.5C 505.5,153.833 505.5,155.167 505.5,156.5C 505.5,156.833 505.5,157.167 505.5,157.5C 504.732,155.285 504.065,152.952 503.5,150.5 Z"/></g>
<g><path style="opacity:1" fill="#837b36" d="M 505.5,152.5 C 521.325,151.504 537.325,151.17 553.5,151.5C 554.116,152.798 554.116,153.798 553.5,154.5C 553.167,154.5 552.833,154.5 552.5,154.5C 537.202,152.516 521.536,151.849 505.5,152.5 Z"/></g>
<g><path style="opacity:1" fill="#fbf07d" d="M 505.5,152.5 C 521.536,151.849 537.202,152.516 552.5,154.5C 537.202,156.484 521.536,157.151 505.5,156.5C 505.5,155.167 505.5,153.833 505.5,152.5 Z"/></g>
<g><path style="opacity:1" fill="#f5ed9e" d="M 552.5,154.5 C 552.833,154.5 553.167,154.5 553.5,154.5C 553.5,155.5 553.5,156.5 553.5,157.5C 537.5,157.5 521.5,157.5 505.5,157.5C 505.5,157.167 505.5,156.833 505.5,156.5C 521.536,157.151 537.202,156.484 552.5,154.5 Z"/></g>
<g><path style="opacity:1" fill="#ece279" d="M 553.5,161.5 C 553.167,161.5 552.833,161.5 552.5,161.5C 537.536,159.516 522.203,158.849 506.5,159.5C 506.659,163.992 508.159,167.992 511,171.5C 512.171,169.384 513.671,168.718 515.5,169.5C 512.119,171.923 511.786,174.589 514.5,177.5C 507.811,173.131 504.478,166.797 504.5,158.5C 520.833,158.5 537.167,158.5 553.5,158.5C 553.5,159.5 553.5,160.5 553.5,161.5 Z"/></g>
<g><path style="opacity:1" fill="#fdf172" d="M 552.5,161.5 C 550.047,165.085 548.714,169.085 548.5,173.5C 547.833,174.833 546.833,175.833 545.5,176.5C 542.927,176.148 540.594,176.648 538.5,178C 539.167,178.333 539.833,178.667 540.5,179C 531.577,182.343 522.91,181.843 514.5,177.5C 511.786,174.589 512.119,171.923 515.5,169.5C 513.671,168.718 512.171,169.384 511,171.5C 508.159,167.992 506.659,163.992 506.5,159.5C 522.203,158.849 537.536,159.516 552.5,161.5 Z"/></g>
<g><path style="opacity:1" fill="#d2c86f" d="M 552.5,161.5 C 552.833,161.5 553.167,161.5 553.5,161.5C 553.373,166.232 551.707,170.232 548.5,173.5C 548.714,169.085 550.047,165.085 552.5,161.5 Z"/></g>
<g><path style="opacity:1" fill="#ece274" d="M 983.5,150.5 C 989.607,157.274 996.607,162.94 1004.5,167.5C 1000.28,167.505 996.951,168.671 994.5,171C 998.326,172.623 1001.99,174.457 1005.5,176.5C 991.027,173.426 978.027,167.426 966.5,158.5C 972.558,161.372 978.892,163.539 985.5,165C 984.692,165.308 984.025,165.808 983.5,166.5C 984.908,167.243 986.241,168.077 987.5,169C 991.252,169.976 991.918,169.31 989.5,167C 991.941,166.964 993.941,166.131 995.5,164.5C 993.028,163.104 990.362,162.27 987.5,162C 984.526,160.494 984.193,158.828 986.5,157C 984.543,155.254 983.543,153.088 983.5,150.5 Z"/></g>
<g><path style="opacity:1" fill="#f7eb74" d="M 1082.5,168.5 C 1081.17,169.167 1079.83,169.833 1078.5,170.5C 1077.29,169.766 1075.96,169.433 1074.5,169.5C 1074.5,167.833 1074.5,166.167 1074.5,164.5C 1076.5,161.833 1078.83,159.5 1081.5,157.5C 1082.5,157.5 1083.5,157.5 1084.5,157.5C 1084.34,156.127 1084.51,154.793 1085,153.5C 1086.74,155.321 1088.24,157.321 1089.5,159.5C 1089.17,161.833 1088.17,162.167 1086.5,160.5C 1083.87,160.894 1083.2,162.061 1084.5,164C 1083.29,165.3 1082.63,166.8 1082.5,168.5 Z"/></g>
<g><path style="opacity:1" fill="#fdf172" d="M 182.5,172.5 C 182.722,174.607 183.722,176.274 185.5,177.5C 178.532,178.497 171.532,178.83 164.5,178.5C 164.878,176.079 165.545,173.746 166.5,171.5C 169.92,168.338 172.086,164.338 173,159.5C 175.694,160.946 176.527,162.946 175.5,165.5C 176.95,166.85 177.617,168.516 177.5,170.5C 179.514,170.392 181.18,171.058 182.5,172.5 Z"/></g>
<g><path style="opacity:1" fill="#f9ee73" d="M 588.5,166.5 C 589.744,169.982 591.744,172.982 594.5,175.5C 594.577,176.75 595.244,177.583 596.5,178C 591.105,177.913 585.605,178.08 580,178.5C 576.833,178.333 573.667,178.167 570.5,178C 572.544,177.502 573.878,176.335 574.5,174.5C 575.833,174.5 577.167,174.5 578.5,174.5C 579.537,169.062 581.203,163.729 583.5,158.5C 585.369,161.217 587.035,163.883 588.5,166.5 Z"/></g>
<g><path style="opacity:1" fill="#ede273" d="M 35.5,160.5 C 45.4293,167.63 56.4293,172.296 68.5,174.5C 69.7489,176.136 71.4156,177.303 73.5,178C 67.8431,178.499 62.1764,178.666 56.5,178.5C 48.7206,177.724 41.3873,175.724 34.5,172.5C 37.5184,172.665 40.5184,172.498 43.5,172C 41.6241,170.983 39.6241,170.149 37.5,169.5C 38.5,168.167 39.5,166.833 40.5,165.5C 39.3717,164.738 38.2051,164.071 37,163.5C 36.3156,167.093 34.8156,167.427 32.5,164.5C 33.2739,163.289 34.1072,163.289 35,164.5C 35.49,163.207 35.6567,161.873 35.5,160.5 Z"/></g>
<g><path style="opacity:1" fill="#c2b965" d="M 1005.5,167.5 C 1014.72,172.202 1024.38,174.869 1034.5,175.5C 1031.5,175.5 1028.5,175.5 1025.5,175.5C 1020.04,174.802 1014.71,173.469 1009.5,171.5C 1007.46,170.789 1006.12,169.456 1005.5,167.5 Z"/></g>
<g><path style="opacity:1" fill="#f9ee73" d="M 104.5,170.5 C 108.953,168.439 113.287,166.106 117.5,163.5C 118.675,163.719 119.675,163.386 120.5,162.5C 121.902,158.634 124.569,157.134 128.5,158C 129.815,159.395 129.481,160.395 127.5,161C 127.957,161.414 128.291,161.914 128.5,162.5C 127.052,163.354 125.719,164.354 124.5,165.5C 123.808,164.975 123.308,164.308 123,163.5C 121.887,164.76 121.72,165.927 122.5,167C 120.564,167.813 118.564,168.313 116.5,168.5C 116.5,169.5 116.5,170.5 116.5,171.5C 110.319,172.839 104.319,174.672 98.5,177C 94.1667,177.667 89.8333,177.667 85.5,177C 91.6637,176.068 97.6637,174.568 103.5,172.5C 103.863,171.817 104.196,171.15 104.5,170.5 Z"/></g>
<g><path style="opacity:1" fill="#c7c165" d="M 808.5,168.5 C 815.081,171.037 821.747,172.704 828.5,173.5C 826.833,173.5 825.167,173.5 823.5,173.5C 818.632,173.76 813.965,172.926 809.5,171C 808.748,170.329 808.414,169.496 808.5,168.5 Z"/></g>
<g><path style="opacity:1" fill="#dcd372" d="M 1074.5,164.5 C 1074.5,166.167 1074.5,167.833 1074.5,169.5C 1075.96,169.433 1077.29,169.766 1078.5,170.5C 1073.9,173.262 1068.9,175.262 1063.5,176.5C 1063.51,174.692 1063.01,173.025 1062,171.5C 1060.64,172.38 1059.14,172.714 1057.5,172.5C 1060.68,170.991 1064.01,169.658 1067.5,168.5C 1069.66,166.917 1072,165.584 1074.5,164.5 Z"/></g>
<g><path style="opacity:1" fill="#fdf172" d="M 1067.5,168.5 C 1069.26,168.643 1070.93,168.309 1072.5,167.5C 1073.43,168.689 1073.76,170.022 1073.5,171.5C 1070.57,172.578 1067.57,173.078 1064.5,173C 1064.17,172.667 1063.83,172.333 1063.5,172C 1065.91,171.943 1067.24,170.776 1067.5,168.5 Z"/></g>
<g><path style="opacity:1" fill="#e0d673" d="M 883.5,128.5 C 883.196,131.522 882.696,134.522 882,137.5C 878.752,141.4 877.918,145.734 879.5,150.5C 878.127,150.343 876.793,150.51 875.5,151C 868.529,155.785 869.529,157.952 878.5,157.5C 861.911,172.612 842.244,180.279 819.5,180.5C 813.923,180.632 808.59,179.965 803.5,178.5C 814.888,178.883 826.221,178.383 837.5,177C 837.833,176.667 838.167,176.333 838.5,176C 834.167,175.667 829.833,175.333 825.5,175C 824.584,174.722 823.918,174.222 823.5,173.5C 825.167,173.5 826.833,173.5 828.5,173.5C 848.947,173.529 864.447,164.862 875,147.5C 878.432,141.313 881.266,134.979 883.5,128.5 Z"/></g>
<g><path style="opacity:1" fill="#fcf271" d="M 1004.5,167.5 C 1004.83,167.5 1005.17,167.5 1005.5,167.5C 1006.12,169.456 1007.46,170.789 1009.5,171.5C 1014.71,173.469 1020.04,174.802 1025.5,175.5C 1025.61,176.117 1025.94,176.617 1026.5,177C 1019.5,177.333 1012.5,177.167 1005.5,176.5C 1001.99,174.457 998.326,172.623 994.5,171C 996.951,168.671 1000.28,167.505 1004.5,167.5 Z"/></g>
<g><path style="opacity:1" fill="#aba361" d="M 376.5,116.5 C 376.5,136.167 376.5,155.833 376.5,175.5C 393.901,175.986 411.234,175.32 428.5,173.5C 426.189,175.068 423.522,175.902 420.5,176C 407.171,176.5 393.837,176.667 380.5,176.5C 378.219,176.923 376.552,176.256 375.5,174.5C 375.17,154.993 375.503,135.659 376.5,116.5 Z"/></g>
<g><path style="opacity:1" fill="#ddd271" d="M 127.5,148.5 C 126.943,150.949 126.943,153.282 127.5,155.5C 128.833,156.167 130.167,156.833 131.5,157.5C 132.386,156.675 132.719,155.675 132.5,154.5C 133.833,154.5 135.167,154.5 136.5,154.5C 136.5,153.167 136.5,151.833 136.5,150.5C 137.5,150.5 138.5,150.5 139.5,150.5C 133.896,161.598 125.23,169.432 113.5,174C 94.7794,180.686 75.7794,182.186 56.5,178.5C 62.1764,178.666 67.8431,178.499 73.5,178C 71.4156,177.303 69.7489,176.136 68.5,174.5C 80.7351,175.585 92.7351,174.252 104.5,170.5C 104.196,171.15 103.863,171.817 103.5,172.5C 97.6637,174.568 91.6637,176.068 85.5,177C 89.8333,177.667 94.1667,177.667 98.5,177C 104.319,174.672 110.319,172.839 116.5,171.5C 116.5,170.5 116.5,169.5 116.5,168.5C 118.564,168.313 120.564,167.813 122.5,167C 121.72,165.927 121.887,164.76 123,163.5C 123.308,164.308 123.808,164.975 124.5,165.5C 125.719,164.354 127.052,163.354 128.5,162.5C 128.291,161.914 127.957,161.414 127.5,161C 129.481,160.395 129.815,159.395 128.5,158C 124.569,157.134 121.902,158.634 120.5,162.5C 119.675,163.386 118.675,163.719 117.5,163.5C 121.682,159 125.015,154 127.5,148.5 Z"/></g>
<g><path style="opacity:1" fill="#e2d873" d="M 1063.5,176.5 C 1044.08,181.797 1024.75,181.797 1005.5,176.5C 1012.5,177.167 1019.5,177.333 1026.5,177C 1025.94,176.617 1025.61,176.117 1025.5,175.5C 1028.5,175.5 1031.5,175.5 1034.5,175.5C 1042.2,174.719 1049.86,173.719 1057.5,172.5C 1059.14,172.714 1060.64,172.38 1062,171.5C 1063.01,173.025 1063.51,174.692 1063.5,176.5 Z"/></g>
<g><path style="opacity:1" fill="#e8df83" d="M 166.5,171.5 C 165.545,173.746 164.878,176.079 164.5,178.5C 171.532,178.83 178.532,178.497 185.5,177.5C 183.722,176.274 182.722,174.607 182.5,172.5C 186.466,176.262 191.132,178.262 196.5,178.5C 182.339,179.661 168.006,179.827 153.5,179C 154.056,178.617 154.389,178.117 154.5,177.5C 159.314,177.093 163.314,175.093 166.5,171.5 Z"/></g>
<g><path style="opacity:1" fill="#ede380" d="M 279.5,152.5 C 280.496,152.414 281.329,152.748 282,153.5C 282.202,155.256 282.702,156.922 283.5,158.5C 285.481,159.105 285.815,160.105 284.5,161.5C 285.948,163.956 286.614,166.622 286.5,169.5C 286.238,172.904 285.238,175.904 283.5,178.5C 294.005,178.531 304.339,177.865 314.5,176.5C 312.666,174.502 311.666,172.168 311.5,169.5C 315.45,174.626 320.45,177.96 326.5,179.5C 309.163,179.667 291.83,179.5 274.5,179C 275.056,178.617 275.389,178.117 275.5,177.5C 280.59,177.734 283.59,175.401 284.5,170.5C 283.23,164.361 281.563,158.361 279.5,152.5 Z"/></g>
<g><path style="opacity:1" fill="#f2e684" d="M 346.5,171.5 C 345.809,174.365 344.142,176.532 341.5,178C 354.496,178.5 367.496,178.667 380.5,178.5C 402.167,178.5 423.833,178.5 445.5,178.5C 443.735,179.461 441.735,179.795 439.5,179.5C 404.832,179.667 370.165,179.5 335.5,179C 336.056,178.617 336.389,178.117 336.5,177.5C 340.605,176.717 343.939,174.717 346.5,171.5 Z"/></g>
<g><path style="opacity:1" fill="#eee586" d="M 574.5,174.5 C 573.878,176.335 572.544,177.502 570.5,178C 573.667,178.167 576.833,178.333 580,178.5C 585.605,178.08 591.105,177.913 596.5,178C 595.244,177.583 594.577,176.75 594.5,175.5C 596.993,176.774 599.659,177.44 602.5,177.5C 596.705,178.83 590.538,179.496 584,179.5C 577.462,179.496 571.295,178.83 565.5,177.5C 568.715,177.095 571.715,176.095 574.5,174.5 Z"/></g>
<g><path style="opacity:1" fill="#7f7731" d="M 154.5,177.5 C 154.389,178.117 154.056,178.617 153.5,179C 168.006,179.827 182.339,179.661 196.5,178.5C 197.043,178.56 197.376,178.893 197.5,179.5C 182.515,180.499 167.515,180.833 152.5,180.5C 152.285,178.821 152.952,177.821 154.5,177.5 Z"/></g>
<g><path style="opacity:1" fill="#817834" d="M 275.5,177.5 C 275.389,178.117 275.056,178.617 274.5,179C 291.83,179.5 309.163,179.667 326.5,179.5C 309.008,180.497 291.341,180.83 273.5,180.5C 273.285,178.821 273.952,177.821 275.5,177.5 Z"/></g>
<g><path style="opacity:1" fill="#827833" d="M 336.5,177.5 C 336.389,178.117 336.056,178.617 335.5,179C 370.165,179.5 404.832,179.667 439.5,179.5C 404.669,180.664 369.669,180.831 334.5,180C 333.588,178.375 334.255,177.541 336.5,177.5 Z"/></g>
<g><path style="opacity:1" fill="#7f7734" d="M 565.5,177.5 C 571.295,178.83 577.462,179.496 584,179.5C 590.538,179.496 596.705,178.83 602.5,177.5C 603.404,178.209 603.737,179.209 603.5,180.5C 590.5,180.5 577.5,180.5 564.5,180.5C 564.263,179.209 564.596,178.209 565.5,177.5 Z"/></g>
<g><path style="opacity:1" fill="#cdc46c" d="M 545.5,176.5 C 545.047,177.458 544.381,178.292 543.5,179C 539.843,180.822 536.176,182.322 532.5,183.5C 530.167,183.5 527.833,183.5 525.5,183.5C 522.571,182.462 519.571,181.296 516.5,180C 515.619,179.292 514.953,178.458 514.5,177.5C 522.91,181.843 531.577,182.343 540.5,179C 539.833,178.667 539.167,178.333 538.5,178C 540.594,176.648 542.927,176.148 545.5,176.5 Z"/></g>
</svg>
